<?xml version="1.0" encoding="UTF-8"?>
<svg version="1.1" xmlns="http://www.w3.org/2000/svg" width="512" height="512">
<path d="M0 0 C0.78237193 -0.00453111 1.56474387 -0.00906223 2.37082404 -0.01373065 C5.0009122 -0.02642357 7.63079458 -0.02475113 10.26091003 -0.02310181 C12.14322172 -0.02908406 14.02553094 -0.0358889 15.90783691 -0.04345703 C21.02774662 -0.06115638 26.14758952 -0.0658141 31.26752687 -0.0670886 C35.53939831 -0.06898574 39.81125413 -0.07634123 44.08311957 -0.08343279 C54.16159682 -0.09972975 64.24003832 -0.1046006 74.31852722 -0.10317993 C84.7187508 -0.10197855 95.11876683 -0.1230768 105.51893789 -0.15466726 C114.44386899 -0.18081174 123.36873224 -0.19154798 132.29370135 -0.19026911 C137.62595736 -0.18975889 142.95802905 -0.19547535 148.29024696 -0.21662521 C153.30618253 -0.23597645 158.3217574 -0.23615335 163.33770561 -0.22159195 C165.17834626 -0.21949879 167.0190093 -0.22423484 168.85961151 -0.23631287 C171.37354803 -0.25174021 173.886237 -0.24247447 176.40014648 -0.22705078 C177.49145448 -0.24248147 177.49145448 -0.24248147 178.60480911 -0.25822389 C183.66232264 -0.1897066 186.54948873 1.00722518 190.39054871 4.26742554 C193.7603872 8.70699521 194.0962753 12.34462567 193.93841553 17.79532623 C192.83134253 24.81138786 189.3583772 30.88670418 186.13859558 37.13363647 C185.35821642 38.69100444 184.57995832 40.24943677 183.8036499 41.80883789 C181.70316858 46.01322563 179.57354623 50.20221118 177.43815041 54.38894939 C175.20673187 58.7764702 173.00272227 63.17771722 170.79570007 67.57754517 C166.61811036 75.89551537 162.41621457 84.20095168 158.2053237 92.50210404 C153.41008754 101.95817282 148.64229593 111.42798261 143.87669659 120.89901304 C134.07832104 140.37053283 124.24581523 159.82464531 114.39054871 179.26742554 C115.63003265 179.27107117 116.8695166 179.2747168 118.14656067 179.2784729 C129.82946809 179.31541954 141.51211184 179.37318888 153.1948185 179.45132828 C159.20099096 179.49083159 165.20701619 179.52300624 171.21330261 179.53842163 C177.01009154 179.55356915 182.80647574 179.5879815 188.60308456 179.63573456 C190.81421261 179.65056789 193.02539844 179.65846767 195.23657608 179.65930939 C198.33472559 179.66167484 201.43175278 179.68872175 204.52970886 179.7215271 C205.44321106 179.71649673 206.35671326 179.71146637 207.29789734 179.70628357 C212.81369805 179.79660204 216.02540044 180.57047914 220.39054871 184.26742554 C223.81273036 188.74763777 224.15092352 192.58846018 223.97648621 198.10336304 C222.88186774 204.01430278 219.2185664 207.8014049 215.39054871 212.26742554 C214.37346143 213.51542457 213.3606794 214.76694062 212.35148621 216.02133179 C210.14342405 218.76313414 207.92306421 221.49407636 205.69132996 224.21664429 C202.67273263 227.9085738 199.7055563 231.63772344 196.76554871 235.39242554 C196.31832458 235.96339966 195.87110046 236.53437378 195.4103241 237.12265015 C194.06932009 238.83673551 192.72966572 240.55186567 191.39054871 242.26742554 C185.08437071 250.3463505 178.7093148 258.35954456 172.23136902 266.30160522 C166.86541685 272.89042127 161.61893216 279.5692769 156.39054871 286.26742554 C150.06260002 294.3742412 143.66223581 302.41111802 137.15666199 310.37631226 C133.83272453 314.45797722 130.58273324 318.58188699 127.39054871 322.76742554 C123.12971024 328.35416512 118.72596255 333.80986801 114.28166199 339.25131226 C108.89518581 345.85414059 103.63357993 352.55051145 98.39054871 359.26742554 C92.66886467 366.59754784 86.90475665 373.88337142 81.01554871 381.07992554 C76.54895202 386.54042094 72.20987053 392.07956263 67.95304871 397.70492554 C62.95525594 404.305584 57.77597449 410.72737818 52.48722839 417.0965271 C46.99187066 423.7210259 41.67738939 430.47621522 36.39054871 437.26742554 C30.06547731 445.37643187 23.66217602 453.41119121 17.15666199 461.37631226 C12.99648621 466.48484512 8.97868263 471.68428884 4.98429871 476.92367554 C1.49500067 481.45976298 -2.14521216 485.87401281 -5.77546692 490.29745483 C-8.40513417 493.51240242 -10.99454626 496.74342064 -13.48445129 500.06820679 C-14.15250793 500.95862671 -14.15250793 500.95862671 -14.83406067 501.86703491 C-16.02752407 503.46989463 -17.20954708 505.0812549 -18.39070129 506.69320679 C-21.44284684 510.23434044 -23.85382547 512.00514496 -28.51179504 512.70101929 C-34.66016931 512.70893225 -38.92259425 512.71393094 -43.60945129 508.26742554 C-47.88832544 502.11077759 -47.50917247 496.3211915 -46.22022629 489.0811348 C-44.90239244 482.69949765 -43.26562525 476.39573399 -41.65242004 470.08383179 C-41.11919284 467.95367908 -40.58726047 465.82320189 -40.05651855 463.69242859 C-38.61840869 457.9329983 -37.16341431 452.17795481 -35.70548248 446.42351532 C-34.18087757 440.39311733 -32.67222943 434.35873394 -31.16267395 428.32455444 C-29.27262115 420.77333841 -27.38107996 413.22250847 -25.48274231 405.67337036 C-20.8953511 387.42932856 -16.35300806 369.17451561 -11.83992004 350.91195679 C-11.52783537 349.64937357 -11.21575069 348.38679035 -10.89420891 347.08594704 C-9.35637304 340.86408329 -7.8190952 334.64208187 -6.2822113 328.41998291 C-3.67415844 317.86159657 -1.06445482 307.30362132 1.54999352 296.74681664 C2.06931731 294.64888192 2.58817673 292.55083219 3.1065464 290.45266151 C3.81225833 287.59620967 4.51943194 284.74012362 5.22697449 281.88412476 C5.43349042 281.04668008 5.64000635 280.2092354 5.85278034 279.34641361 C6.61339483 276.28152256 7.39148773 273.26460847 8.39054871 270.26742554 C7.0758963 270.27630798 5.7612439 270.28519043 4.40675354 270.29434204 C-7.98232376 270.3754272 -20.37134722 270.43539082 -32.76062965 270.47467422 C-39.13010848 270.49554917 -45.4993731 270.52386584 -51.86872864 270.56918335 C-58.01547222 270.61264332 -64.16200975 270.63656334 -70.30889511 270.64693451 C-72.65406411 270.65432552 -74.99922184 270.66875834 -77.34430313 270.69034576 C-80.62906011 270.71938083 -83.91296555 270.72338137 -87.1978302 270.7215271 C-88.16743683 270.7359082 -89.13704346 270.75028931 -90.1360321 270.7651062 C-95.77860655 270.7306379 -99.23915206 270.20245611 -103.60945129 266.26742554 C-107.69296696 260.93469501 -107.37103059 255.71948997 -106.60945129 249.26742554 C-105.38895148 244.53911984 -103.66884346 240.06914592 -101.87117004 235.53305054 C-101.36105631 234.20288417 -100.85279886 232.8720047 -100.34623718 231.54048157 C-99.25680954 228.68787193 -98.15529394 225.84036345 -97.04380798 222.99627686 C-95.25831999 218.42677115 -93.50093873 213.84676765 -91.74787903 209.26473999 C-89.9051535 204.45202692 -88.06068444 199.64002307 -86.20681763 194.83158875 C-80.3180622 179.55638328 -74.5632902 164.23246633 -68.83274841 148.89733887 C-67.16692653 144.44015427 -65.49744924 139.98434502 -63.82698059 135.52890015 C-63.54963672 134.78916615 -63.27229284 134.04943216 -62.98654461 133.28728199 C-62.42476568 131.78894203 -61.86297742 130.29060556 -61.30117989 128.79227257 C-59.89064299 125.02992182 -58.48076616 121.26732377 -57.07087708 117.50473022 C-56.49920211 115.9791359 -55.92752649 114.45354183 -55.35585022 112.927948 C-55.06954994 112.16391159 -54.78324966 111.39987518 -54.48827362 110.61268616 C-50.24243129 99.28206047 -45.99626509 87.95155633 -41.74890614 76.62149906 C-40.30983033 72.78260688 -38.87097445 68.94363264 -37.432724 65.10443115 C-37.02692659 64.0212849 -37.02692659 64.0212849 -36.61293125 62.9162569 C-36.075334 61.48127006 -35.53779371 60.04626188 -35.00031185 58.6112318 C-33.70527973 55.15465834 -32.40811622 51.69891375 -31.10614014 48.24494934 C-30.60196737 46.90692672 -30.09786229 45.56887859 -29.59382629 44.23080444 C-29.34720025 43.57611333 -29.10057421 42.92142221 -28.84647465 42.24689198 C-27.31539865 38.17303052 -25.80928378 34.09077177 -24.32003021 30.00144291 C-23.3359414 27.30389782 -22.3415054 24.61023029 -21.34564209 21.91701317 C-20.66181823 20.05538266 -19.99239256 18.188483 -19.32344055 16.32145691 C-15.52782063 6.09112398 -11.71017788 -0.04939701 0 0 Z " fill="#FEA900" transform="translate(197.6094512939453,-0.267425537109375)"/>
</svg>
