<?xml version="1.0" encoding="UTF-8"?>
<svg version="1.1" xmlns="http://www.w3.org/2000/svg" width="512" height="512">
<path d="M0 0 C6.9607719 4.29171775 10.33394837 10.11254621 13.5 17.5 C13.5 28.72 13.5 39.94 13.5 51.5 C55.74 51.5 97.98 51.5 141.5 51.5 C141.5 40.61 141.5 29.72 141.5 18.5 C145.60716895 9.25886987 148.35536623 3.64081862 157.484375 -0.58203125 C164.54796089 -2.73221607 173.12579684 -2.98238775 180 0 C186.53732632 4.0306391 191.17233366 10.22270026 193.5 17.5 C193.74288024 20.2925134 193.8537899 22.84169575 193.79296875 25.62109375 C193.78872391 26.36585464 193.78447906 27.11061554 193.78010559 27.87794495 C193.76345724 30.23151473 193.72583375 32.58419379 193.6875 34.9375 C193.67243515 36.54360733 193.65874991 38.14972823 193.64648438 39.75585938 C193.61359952 43.67091047 193.56191626 47.58530479 193.5 51.5 C194.23391968 51.49111755 194.96783936 51.48223511 195.72399902 51.4730835 C202.66743654 51.39267054 209.61080374 51.33190051 216.55458832 51.29275131 C220.12383519 51.27194685 223.69269474 51.24376231 227.26171875 51.19824219 C230.71120466 51.154526 234.16031992 51.13080929 237.61006165 51.12049103 C239.55539182 51.10958995 241.50057452 51.07840534 243.44567871 51.04681396 C251.08861927 51.04489073 257.21962403 51.40057992 263.01159668 56.94769287 C267.39145408 61.93439326 268.75520955 65.42694995 268.6953125 72.015625 C268.68886719 73.26601562 268.68242187 74.51640625 268.67578125 75.8046875 C268.65902344 77.10664062 268.64226562 78.40859375 268.625 79.75 C268.61597656 81.06742187 268.60695313 82.38484375 268.59765625 83.7421875 C268.57408533 86.99497462 268.54118022 90.24739589 268.5 93.5 C269.18626465 93.48952637 269.8725293 93.47905273 270.57958984 93.46826172 C273.67802289 93.42678126 276.77639761 93.40069931 279.875 93.375 C280.95523437 93.35824219 282.03546875 93.34148437 283.1484375 93.32421875 C284.1796875 93.31777344 285.2109375 93.31132813 286.2734375 93.3046875 C287.70308838 93.28897705 287.70308838 93.28897705 289.16162109 93.27294922 C291.5 93.5 291.5 93.5 293.5 95.5 C293.625 98.625 293.625 98.625 293.5 101.5 C294.16541306 101.48889694 294.83082611 101.47779388 295.5164032 101.46635437 C302.44300919 101.35572341 309.36936418 101.28031661 316.29663086 101.2253418 C318.8816955 101.20019999 321.46668907 101.16608185 324.05151367 101.12280273 C327.76759374 101.06214078 331.48273386 101.03378581 335.19921875 101.01171875 C336.93228523 100.97300911 336.93228523 100.97300911 338.70036316 100.93351746 C346.71301049 100.93071751 346.71301049 100.93071751 350.73364258 103.83911133 C352.8969614 107.09799341 353.23446922 108.66443851 352.5 112.5 C350.43467747 115.13194644 349.25927907 116.35783473 345.93096924 116.98101807 C344.47868927 116.9676944 344.47868927 116.9676944 342.99707031 116.95410156 C341.89623108 116.95379944 340.79539185 116.95349731 339.66119385 116.95318604 C338.47878113 116.93254089 337.29636841 116.91189575 336.078125 116.890625 C334.86300232 116.88496521 333.64787964 116.87930542 332.39593506 116.87347412 C328.51355657 116.85107734 324.63209972 116.80087187 320.75 116.75 C318.11850291 116.7299394 315.48699136 116.71168787 312.85546875 116.6953125 C306.40333119 116.65120153 299.95173144 116.58425519 293.5 116.5 C293.54125 117.44875 293.5825 118.3975 293.625 119.375 C293.5 122.5 293.5 122.5 291.5 124.5 C289.16162109 124.72705078 289.16162109 124.72705078 286.2734375 124.6953125 C285.2421875 124.68886719 284.2109375 124.68242187 283.1484375 124.67578125 C282.06820313 124.65902344 280.98796875 124.64226562 279.875 124.625 C278.78703125 124.61597656 277.6990625 124.60695313 276.578125 124.59765625 C273.88519848 124.57403409 271.19270745 124.54109556 268.5 124.5 C268.5 127.47 268.5 130.44 268.5 133.5 C269.18626465 133.48952637 269.8725293 133.47905273 270.57958984 133.46826172 C273.67802289 133.42678126 276.77639761 133.40069931 279.875 133.375 C280.95523437 133.35824219 282.03546875 133.34148437 283.1484375 133.32421875 C284.1796875 133.31777344 285.2109375 133.31132812 286.2734375 133.3046875 C287.70308838 133.28897705 287.70308838 133.28897705 289.16162109 133.27294922 C291.5 133.5 291.5 133.5 293.5 135.5 C293.625 138.625 293.625 138.625 293.5 141.5 C294.16541306 141.48889694 294.83082611 141.47779388 295.5164032 141.46635437 C302.44300919 141.35572341 309.36936418 141.28031661 316.29663086 141.2253418 C318.8816955 141.20019999 321.46668907 141.16608185 324.05151367 141.12280273 C327.76759374 141.06214078 331.48273386 141.03378581 335.19921875 141.01171875 C336.93228523 140.97300911 336.93228523 140.97300911 338.70036316 140.93351746 C346.71301049 140.93071751 346.71301049 140.93071751 350.73364258 143.83911133 C352.8969614 147.09799341 353.23446922 148.66443851 352.5 152.5 C350.43467747 155.13194644 349.25927907 156.35783473 345.93096924 156.98101807 C344.96278259 156.97213562 343.99459595 156.96325317 342.99707031 156.95410156 C341.89623108 156.95379944 340.79539185 156.95349731 339.66119385 156.95318604 C338.47878113 156.93254089 337.29636841 156.91189575 336.078125 156.890625 C334.86300232 156.88496521 333.64787964 156.87930542 332.39593506 156.87347412 C328.51355657 156.85107734 324.63209972 156.80087187 320.75 156.75 C318.11850291 156.7299394 315.48699136 156.71168787 312.85546875 156.6953125 C306.40333119 156.65120153 299.95173144 156.58425519 293.5 156.5 C293.561875 157.923125 293.561875 157.923125 293.625 159.375 C293.5 162.5 293.5 162.5 291.5 164.5 C289.16162109 164.72705078 289.16162109 164.72705078 286.2734375 164.6953125 C284.7265625 164.68564453 284.7265625 164.68564453 283.1484375 164.67578125 C282.06820313 164.65902344 280.98796875 164.64226562 279.875 164.625 C278.78703125 164.61597656 277.6990625 164.60695312 276.578125 164.59765625 C273.88519848 164.57403409 271.19270745 164.54109556 268.5 164.5 C268.5 167.47 268.5 170.44 268.5 173.5 C269.18626465 173.48952637 269.8725293 173.47905273 270.57958984 173.46826172 C273.67802289 173.42678126 276.77639761 173.40069931 279.875 173.375 C280.95523437 173.35824219 282.03546875 173.34148437 283.1484375 173.32421875 C284.1796875 173.31777344 285.2109375 173.31132812 286.2734375 173.3046875 C287.70308838 173.28897705 287.70308838 173.28897705 289.16162109 173.27294922 C291.5 173.5 291.5 173.5 293.5 175.5 C293.625 178.625 293.625 178.625 293.5 181.5 C294.16541306 181.48889694 294.83082611 181.47779388 295.5164032 181.46635437 C302.44300919 181.35572341 309.36936418 181.28031661 316.29663086 181.2253418 C318.8816955 181.20019999 321.46668907 181.16608185 324.05151367 181.12280273 C327.76759374 181.06214078 331.48273386 181.03378581 335.19921875 181.01171875 C336.93228523 180.97300911 336.93228523 180.97300911 338.70036316 180.93351746 C346.71301049 180.93071751 346.71301049 180.93071751 350.73364258 183.83911133 C352.8969614 187.09799341 353.23446922 188.66443851 352.5 192.5 C350.43467747 195.13194644 349.25927907 196.35783473 345.93096924 196.98101807 C344.96278259 196.97213562 343.99459595 196.96325317 342.99707031 196.95410156 C341.89623108 196.95379944 340.79539185 196.95349731 339.66119385 196.95318604 C338.47878113 196.93254089 337.29636841 196.91189575 336.078125 196.890625 C334.86300232 196.88496521 333.64787964 196.87930542 332.39593506 196.87347412 C328.51355657 196.85107734 324.63209972 196.80087187 320.75 196.75 C318.11850291 196.7299394 315.48699136 196.71168787 312.85546875 196.6953125 C306.40333119 196.65120153 299.95173144 196.58425519 293.5 196.5 C293.561875 197.923125 293.561875 197.923125 293.625 199.375 C293.5 202.5 293.5 202.5 291.5 204.5 C289.16162109 204.72705078 289.16162109 204.72705078 286.2734375 204.6953125 C284.7265625 204.68564453 284.7265625 204.68564453 283.1484375 204.67578125 C282.06820313 204.65902344 280.98796875 204.64226562 279.875 204.625 C278.78703125 204.61597656 277.6990625 204.60695312 276.578125 204.59765625 C273.88519848 204.57403409 271.19270745 204.54109556 268.5 204.5 C268.5 207.47 268.5 210.44 268.5 213.5 C269.18626465 213.48952637 269.8725293 213.47905273 270.57958984 213.46826172 C273.67802289 213.42678126 276.77639761 213.40069931 279.875 213.375 C280.95523437 213.35824219 282.03546875 213.34148437 283.1484375 213.32421875 C284.1796875 213.31777344 285.2109375 213.31132812 286.2734375 213.3046875 C287.70308838 213.28897705 287.70308838 213.28897705 289.16162109 213.27294922 C291.5 213.5 291.5 213.5 293.5 215.5 C293.625 218.625 293.625 218.625 293.5 221.5 C294.16541306 221.48889694 294.83082611 221.47779388 295.5164032 221.46635437 C302.44300919 221.35572341 309.36936418 221.28031661 316.29663086 221.2253418 C318.8816955 221.20019999 321.46668907 221.16608185 324.05151367 221.12280273 C327.76759374 221.06214078 331.48273386 221.03378581 335.19921875 221.01171875 C336.93228523 220.97300911 336.93228523 220.97300911 338.70036316 220.93351746 C346.71301049 220.93071751 346.71301049 220.93071751 350.73364258 223.83911133 C352.8969614 227.09799341 353.23446922 228.66443851 352.5 232.5 C350.43467747 235.13194644 349.25927907 236.35783473 345.93096924 236.98101807 C344.96278259 236.97213562 343.99459595 236.96325317 342.99707031 236.95410156 C341.89623108 236.95379944 340.79539185 236.95349731 339.66119385 236.95318604 C338.47878113 236.93254089 337.29636841 236.91189575 336.078125 236.890625 C334.86300232 236.88496521 333.64787964 236.87930542 332.39593506 236.87347412 C328.51355657 236.85107734 324.63209972 236.80087187 320.75 236.75 C318.11850291 236.7299394 315.48699136 236.71168787 312.85546875 236.6953125 C306.40333119 236.65120153 299.95173144 236.58425519 293.5 236.5 C293.561875 237.923125 293.561875 237.923125 293.625 239.375 C293.5 242.5 293.5 242.5 291.5 244.5 C283.91 244.5 276.32 244.5 268.5 244.5 C268.5 267.93 268.5 291.36 268.5 315.5 C276.09 315.5 283.68 315.5 291.5 315.5 C293.5 317.5 293.5 317.5 293.625 320.625 C293.58375 321.57375 293.5425 322.5225 293.5 323.5 C294.16541306 323.48889694 294.83082611 323.47779388 295.5164032 323.46635437 C302.44300919 323.35572341 309.36936418 323.28031661 316.29663086 323.2253418 C318.8816955 323.20019999 321.46668907 323.16608185 324.05151367 323.12280273 C327.76759374 323.06214078 331.48273386 323.03378581 335.19921875 323.01171875 C336.93228523 322.97300911 336.93228523 322.97300911 338.70036316 322.93351746 C346.71301049 322.93071751 346.71301049 322.93071751 350.73364258 325.83911133 C352.8969614 329.09799341 353.23446922 330.66443851 352.5 334.5 C350.43467747 337.13194644 349.25927907 338.35783473 345.93096924 338.98101807 C344.96278259 338.97213562 343.99459595 338.96325317 342.99707031 338.95410156 C341.89623108 338.95379944 340.79539185 338.95349731 339.66119385 338.95318604 C338.47878113 338.93254089 337.29636841 338.91189575 336.078125 338.890625 C334.25544098 338.88213531 334.25544098 338.88213531 332.39593506 338.87347412 C328.51355657 338.85107734 324.63209972 338.80087187 320.75 338.75 C318.11850291 338.7299394 315.48699136 338.71168787 312.85546875 338.6953125 C306.40333119 338.65120153 299.95173144 338.58425519 293.5 338.5 C293.54125 339.44875 293.5825 340.3975 293.625 341.375 C293.5 344.5 293.5 344.5 291.5 346.5 C289.16162109 346.72705078 289.16162109 346.72705078 286.2734375 346.6953125 C285.2421875 346.68886719 284.2109375 346.68242187 283.1484375 346.67578125 C282.06820313 346.65902344 280.98796875 346.64226562 279.875 346.625 C278.78703125 346.61597656 277.6990625 346.60695313 276.578125 346.59765625 C273.88519848 346.57403409 271.19270745 346.54109556 268.5 346.5 C268.5 349.47 268.5 352.44 268.5 355.5 C269.18626465 355.48952637 269.8725293 355.47905273 270.57958984 355.46826172 C273.67802289 355.42678126 276.77639761 355.40069931 279.875 355.375 C280.95523437 355.35824219 282.03546875 355.34148437 283.1484375 355.32421875 C284.1796875 355.31777344 285.2109375 355.31132812 286.2734375 355.3046875 C287.22653809 355.29421387 288.17963867 355.28374023 289.16162109 355.27294922 C291.5 355.5 291.5 355.5 293.5 357.5 C293.625 360.625 293.625 360.625 293.5 363.5 C294.16541306 363.48889694 294.83082611 363.47779388 295.5164032 363.46635437 C302.44300919 363.35572341 309.36936418 363.28031661 316.29663086 363.2253418 C318.8816955 363.20019999 321.46668907 363.16608185 324.05151367 363.12280273 C327.76759374 363.06214078 331.48273386 363.03378581 335.19921875 363.01171875 C336.93228523 362.97300911 336.93228523 362.97300911 338.70036316 362.93351746 C346.71301049 362.93071751 346.71301049 362.93071751 350.73364258 365.83911133 C352.8969614 369.09799341 353.23446922 370.66443851 352.5 374.5 C350.43467747 377.13194644 349.25927907 378.35783473 345.93096924 378.98101807 C344.96278259 378.97213562 343.99459595 378.96325317 342.99707031 378.95410156 C341.89623108 378.95379944 340.79539185 378.95349731 339.66119385 378.95318604 C338.47878113 378.93254089 337.29636841 378.91189575 336.078125 378.890625 C334.25544098 378.88213531 334.25544098 378.88213531 332.39593506 378.87347412 C328.51355657 378.85107734 324.63209972 378.80087187 320.75 378.75 C318.11850291 378.7299394 315.48699136 378.71168787 312.85546875 378.6953125 C306.40333119 378.65120153 299.95173144 378.58425519 293.5 378.5 C293.54125 379.44875 293.5825 380.3975 293.625 381.375 C293.5 384.5 293.5 384.5 291.5 386.5 C289.16162109 386.72705078 289.16162109 386.72705078 286.2734375 386.6953125 C285.2421875 386.68886719 284.2109375 386.68242187 283.1484375 386.67578125 C282.06820313 386.65902344 280.98796875 386.64226562 279.875 386.625 C278.78703125 386.61597656 277.6990625 386.60695313 276.578125 386.59765625 C273.88519848 386.57403409 271.19270745 386.54109556 268.5 386.5 C268.53927612 387.93666016 268.53927612 387.93666016 268.5793457 389.40234375 C268.67049127 392.98787674 268.72747921 396.57330942 268.7746582 400.15966797 C268.79965732 401.70574212 268.83366902 403.25169982 268.87719727 404.79736328 C269.30257432 420.30110569 269.30257432 420.30110569 264.8269043 426.11572266 C260.68650406 430.43514663 256.68746607 433.23373167 250.62089539 433.74050903 C249.56610489 433.73606781 248.51131439 433.73162659 247.42456055 433.72705078 C245.62325935 433.72682419 245.62325935 433.72682419 243.78556824 433.72659302 C241.85563774 433.71110916 241.85563774 433.71110916 239.88671875 433.6953125 C238.54865226 433.69157912 237.21058303 433.68873368 235.87251282 433.68673706 C232.36258301 433.67912616 228.85282055 433.65949982 225.34295654 433.6373291 C221.75665551 433.61681564 218.17032726 433.60772362 214.58398438 433.59765625 C207.55592115 433.57625129 200.52796862 433.54214631 193.5 433.5 C193.52618408 434.47759277 193.55236816 435.45518555 193.5793457 436.46240234 C193.67071937 440.13371352 193.72756037 443.80492705 193.7746582 447.47705078 C193.79960626 449.05795259 193.83357805 450.63874142 193.87719727 452.21923828 C194.16959751 463.09652728 193.78048804 471.25942322 186.4375 479.9375 C185.798125 480.453125 185.15875 480.96875 184.5 481.5 C183.860625 482.03625 183.22125 482.5725 182.5625 483.125 C175.80197351 487.63201766 168.30524515 487.26930548 160.5 486.5 C153.73278137 484.52107445 148.09971026 480.6340857 144.5 474.5 C141.5 466.5 141.5 466.5 141.5 433.5 C99.26 433.5 57.02 433.5 13.5 433.5 C13.5 444.72 13.5 455.94 13.5 467.5 C7.85135135 478.7972973 7.85135135 478.7972973 4.5 481.5 C3.5409375 482.304375 3.5409375 482.304375 2.5625 483.125 C-4.19802649 487.63201766 -11.69475485 487.26930548 -19.5 486.5 C-26.26721863 484.52107445 -31.90028974 480.6340857 -35.5 474.5 C-39.61640797 466.58908325 -38.8340968 458.17594898 -38.6875 449.5 C-38.67242973 447.94662752 -38.65874546 446.39324094 -38.64648438 444.83984375 C-38.61365497 441.05954385 -38.56200254 437.27992937 -38.5 433.5 C-39.23391968 433.50888245 -39.96783936 433.51776489 -40.72399902 433.5269165 C-47.66743654 433.60732946 -54.61080374 433.66809949 -61.55458832 433.70724869 C-65.12383519 433.72805315 -68.69269474 433.75623769 -72.26171875 433.80175781 C-75.71120466 433.845474 -79.16031992 433.86919071 -82.61006165 433.87950897 C-84.55539182 433.89041005 -86.50057452 433.92159466 -88.44567871 433.95318604 C-96.5280705 433.95521985 -102.51958946 433.36711612 -108.55859375 427.5 C-109.01363281 426.84 -109.46867187 426.18 -109.9375 425.5 C-110.41058594 424.84 -110.88367188 424.18 -111.37109375 423.5 C-113.56632451 419.61087146 -113.62623061 415.97211052 -113.63142776 411.56128216 C-113.63526891 410.3384464 -113.63911005 409.11561065 -113.6430676 407.85571927 C-113.64228736 406.49672355 -113.64140858 405.13772789 -113.64044189 403.7787323 C-113.64302561 402.33658799 -113.64603879 400.8944444 -113.6494453 399.4523018 C-113.65751764 395.48429906 -113.659305 391.51631441 -113.66004276 387.54830444 C-113.66189289 383.27075901 -113.66943998 378.99322298 -113.67617798 374.71568298 C-113.68976307 365.36037759 -113.69578617 356.00507648 -113.70018864 346.64976287 C-113.70295052 340.80962708 -113.70718776 334.96949296 -113.71169281 329.12935829 C-113.72388525 312.96329318 -113.73418491 296.79722939 -113.7375679 280.63115978 C-113.73778747 279.59639726 -113.73800703 278.56163474 -113.73823325 277.49551578 C-113.73845153 276.4582646 -113.73866981 275.42101342 -113.7388947 274.35233039 C-113.73933817 272.25043054 -113.73978473 270.1485307 -113.74023438 268.04663086 C-113.7404558 267.00401387 -113.74067723 265.96139688 -113.74090537 264.88718543 C-113.74485438 247.98864862 -113.76231163 231.0901549 -113.7855939 214.19163474 C-113.80929829 196.84691224 -113.82176932 179.50221139 -113.82293582 162.15747243 C-113.82385305 152.41709853 -113.82961739 142.67678079 -113.84775543 132.93642235 C-113.86314405 124.64327089 -113.86828418 116.35019295 -113.86001733 108.05702993 C-113.85610655 103.82529769 -113.85706127 99.59371358 -113.87107468 95.36199951 C-113.88378781 91.48753729 -113.88263898 87.61333489 -113.87048396 83.73887316 C-113.86852248 82.33779826 -113.87162625 80.93670512 -113.88032833 79.53565588 C-113.93080284 70.85935229 -113.4506751 65.1992233 -108.8125 57.8125 C-103.79685029 52.79685029 -99.02479186 51.26267337 -92.08398438 51.04589844 C-89.58715001 51.04652673 -87.0902552 51.06882805 -84.59375 51.109375 C-83.25997776 51.11684908 -81.92619444 51.12253649 -80.59240723 51.12652588 C-77.10694266 51.14169091 -73.62216055 51.18089081 -70.13696289 51.2253418 C-66.57056913 51.26649406 -63.0040635 51.28457914 -59.4375 51.3046875 C-52.45805561 51.34739638 -45.4790607 51.41553417 -38.5 51.5 C-38.5314209 50.07119507 -38.5314209 50.07119507 -38.56347656 48.61352539 C-38.63650123 45.04092762 -38.68202338 41.4683942 -38.71972656 37.89526367 C-38.73970121 36.35608789 -38.76689097 34.81698662 -38.80175781 33.27807617 C-39.03406911 22.75232456 -38.23666646 15.21490164 -32.375 6.25 C-23.8020014 -1.95025953 -11.23244657 -4.87322098 0 0 Z " fill="#478CF6" transform="translate(136.5,13.5)"/>
<path d="M0 0 C1.66321067 -0.00514485 3.32641587 -0.01243039 4.98960876 -0.02168274 C9.48554445 -0.04013162 13.98088393 -0.02730018 18.47679448 -0.00759244 C23.19225407 0.00884667 27.90767746 -0.00002601 32.62315369 -0.00511169 C40.53923009 -0.00962634 48.45506972 0.00619921 56.37109375 0.03417969 C65.51154157 0.06623981 74.65156273 0.06620949 83.79204088 0.04896492 C92.60149594 0.03307994 101.41079518 0.03984536 110.22024345 0.05690193 C113.96210334 0.06375852 117.70383781 0.06275435 121.44569588 0.05535698 C125.85441563 0.04767379 130.26265201 0.0598863 134.67128944 0.08720589 C136.28531714 0.09406911 137.89939015 0.09420988 139.51341629 0.08699036 C154.67837145 0.02699332 154.67837145 0.02699332 161.49975586 4.63110352 C163.55834961 6.70141602 163.55834961 6.70141602 164.93725586 8.75610352 C165.4103418 9.43930664 165.88342773 10.12250977 166.37084961 10.82641602 C168.66514672 14.49411589 168.62978368 16.92775513 168.64019775 21.27836609 C168.64316888 21.96933988 168.64614 22.66031367 168.64920115 23.37222606 C168.65790681 25.69900917 168.65939799 28.02574094 168.66088867 30.35253906 C168.66551563 32.01633312 168.67054013 33.6801261 168.67593384 35.34391785 C168.68907407 39.87305019 168.69550628 44.4021677 168.6999445 48.93131614 C168.70287341 51.76062263 168.70697793 54.58992506 168.71144867 57.41922951 C168.72512964 66.27029359 168.73479261 75.12134838 168.73865056 83.9724223 C168.74312897 94.19127216 168.76066425 104.4099881 168.78965116 114.62879723 C168.81127293 122.52527506 168.82135515 130.42171523 168.82269168 138.31822234 C168.82373961 143.03513946 168.82964463 147.7519308 168.84751129 152.46881676 C168.86399989 156.90850837 168.86614365 161.34797978 168.85737228 165.78769112 C168.85660226 167.41505396 168.86094014 169.04242868 168.87083054 170.66976166 C168.88356679 172.89640955 168.8776647 175.12227959 168.86724854 177.34892273 C168.8687151 178.593511 168.87018166 179.83809927 168.87169266 181.12040234 C168.2314124 187.16399007 165.83255021 192.29830917 161.49975586 196.63110352 C153.9049329 201.76801676 145.96075116 201.20405555 137.12890625 201.16455078 C135.46746558 201.17161562 133.80603134 201.180363 132.14460754 201.19065857 C127.64864649 201.21309921 123.15303836 201.21022534 118.65704274 201.2013371 C114.89716388 201.19621532 111.13735064 201.20352943 107.37747854 201.21080917 C98.50452333 201.2277913 89.63174016 201.22425939 80.75878906 201.20751953 C71.61890556 201.19059856 62.47949968 201.20643619 53.33966833 201.23874241 C45.47867372 201.26547103 37.61782749 201.27270552 29.75679201 201.26422733 C25.06779053 201.25930781 20.37907636 201.26146085 15.69011116 201.28201485 C11.27970811 201.30042355 6.86998999 201.29435034 2.45962334 201.26981544 C0.84600538 201.264824 -0.76766523 201.26825388 -2.38124084 201.2809639 C-18.91948616 201.40087663 -18.91948616 201.40087663 -25.50024414 195.63110352 C-29.99655924 189.91809078 -31.62014072 185.21633035 -31.66087341 177.92173767 C-31.66596123 177.23610971 -31.67104905 176.55048174 -31.67629105 175.84407717 C-31.6920162 173.54123574 -31.70054084 171.2384257 -31.70898438 168.93554688 C-31.718523 167.28632407 -31.72841417 165.63710326 -31.7386322 163.98788452 C-31.77002356 158.56559627 -31.79028826 153.14329267 -31.80883789 147.72094727 C-31.81213521 146.79792037 -31.81543253 145.87489348 -31.81882977 144.92389607 C-31.84961666 136.21535802 -31.87631959 127.50681647 -31.89324856 118.79823971 C-31.91514033 107.66775054 -31.95707714 96.53774468 -32.02668613 85.40744871 C-32.07398895 77.57715086 -32.09819069 69.7469831 -32.10544544 61.91654688 C-32.11039322 57.24240416 -32.12538997 52.56880609 -32.16518974 47.89481926 C-32.20217959 43.49268541 -32.21042568 39.09140448 -32.19718361 34.68914413 C-32.19723736 33.07913735 -32.20745206 31.46909159 -32.22893524 29.85922813 C-32.345076 20.65937482 -32.14438243 12.7357533 -25.50024414 5.63110352 C-18.39233777 -0.97198623 -9.08955967 -0.07159782 0 0 Z " fill="#2266D2" transform="translate(145.500244140625,155.368896484375)"/>
<path d="M0 0 C4.64684465 0.82061299 6.21544101 3.26282872 9 7 C11.23038481 10.51762452 11.23280094 13.39189608 11.1953125 17.515625 C11.18886719 18.76601562 11.18242187 20.01640625 11.17578125 21.3046875 C11.15902344 22.60664062 11.14226562 23.90859375 11.125 25.25 C11.11597656 26.56742188 11.10695313 27.88484375 11.09765625 29.2421875 C11.07408533 32.49497462 11.04118022 35.74739589 11 39 C12.02939697 38.98428955 12.02939697 38.98428955 13.07958984 38.96826172 C16.17802289 38.92678126 19.27639761 38.90069931 22.375 38.875 C23.45523437 38.85824219 24.53546875 38.84148437 25.6484375 38.82421875 C26.6796875 38.81777344 27.7109375 38.81132813 28.7734375 38.8046875 C30.20308838 38.78897705 30.20308838 38.78897705 31.66162109 38.77294922 C34 39 34 39 36 41 C36.125 44.125 36.125 44.125 36 47 C36.66541306 46.98889694 37.33082611 46.97779388 38.0164032 46.96635437 C44.94300919 46.85572341 51.86936418 46.78031661 58.79663086 46.7253418 C61.3816955 46.70019999 63.96668907 46.66608185 66.55151367 46.62280273 C70.26759374 46.56214078 73.98273386 46.53378581 77.69921875 46.51171875 C79.43228523 46.47300911 79.43228523 46.47300911 81.20036316 46.43351746 C89.21301049 46.43071751 89.21301049 46.43071751 93.23364258 49.33911133 C95.3969614 52.59799341 95.73446922 54.16443851 95 58 C92.93467747 60.63194644 91.75927907 61.85783473 88.43096924 62.48101807 C86.97868927 62.4676944 86.97868927 62.4676944 85.49707031 62.45410156 C84.39623108 62.45379944 83.29539185 62.45349731 82.16119385 62.45318604 C80.97878113 62.43254089 79.79636841 62.41189575 78.578125 62.390625 C77.36300232 62.38496521 76.14787964 62.37930542 74.89593506 62.37347412 C71.01355657 62.35107734 67.13209972 62.30087187 63.25 62.25 C60.61850291 62.2299394 57.98699136 62.21168787 55.35546875 62.1953125 C48.90333119 62.15120153 42.45173144 62.08425519 36 62 C36.061875 63.423125 36.061875 63.423125 36.125 64.875 C36 68 36 68 34 70 C31.66162109 70.22705078 31.66162109 70.22705078 28.7734375 70.1953125 C27.7421875 70.18886719 26.7109375 70.18242187 25.6484375 70.17578125 C24.56820313 70.15902344 23.48796875 70.14226562 22.375 70.125 C21.28703125 70.11597656 20.1990625 70.10695313 19.078125 70.09765625 C16.38519848 70.07403409 13.69270745 70.04109556 11 70 C11 72.97 11 75.94 11 79 C11.68626465 78.98952637 12.3725293 78.97905273 13.07958984 78.96826172 C16.17802289 78.92678126 19.27639761 78.90069931 22.375 78.875 C23.45523437 78.85824219 24.53546875 78.84148437 25.6484375 78.82421875 C26.6796875 78.81777344 27.7109375 78.81132812 28.7734375 78.8046875 C30.20308838 78.78897705 30.20308838 78.78897705 31.66162109 78.77294922 C34 79 34 79 36 81 C36.125 84.125 36.125 84.125 36 87 C36.66541306 86.98889694 37.33082611 86.97779388 38.0164032 86.96635437 C44.94300919 86.85572341 51.86936418 86.78031661 58.79663086 86.7253418 C61.3816955 86.70019999 63.96668907 86.66608185 66.55151367 86.62280273 C70.26759374 86.56214078 73.98273386 86.53378581 77.69921875 86.51171875 C79.43228523 86.47300911 79.43228523 86.47300911 81.20036316 86.43351746 C89.21301049 86.43071751 89.21301049 86.43071751 93.23364258 89.33911133 C95.3969614 92.59799341 95.73446922 94.16443851 95 98 C92.93467747 100.63194644 91.75927907 101.85783473 88.43096924 102.48101807 C86.97868927 102.4676944 86.97868927 102.4676944 85.49707031 102.45410156 C84.39623108 102.45379944 83.29539185 102.45349731 82.16119385 102.45318604 C80.97878113 102.43254089 79.79636841 102.41189575 78.578125 102.390625 C77.36300232 102.38496521 76.14787964 102.37930542 74.89593506 102.37347412 C71.01355657 102.35107734 67.13209972 102.30087187 63.25 102.25 C60.61850291 102.2299394 57.98699136 102.21168787 55.35546875 102.1953125 C48.90333119 102.15120153 42.45173144 102.08425519 36 102 C36.04125 102.94875 36.0825 103.8975 36.125 104.875 C36 108 36 108 34 110 C31.66162109 110.22705078 31.66162109 110.22705078 28.7734375 110.1953125 C27.7421875 110.18886719 26.7109375 110.18242187 25.6484375 110.17578125 C24.56820313 110.15902344 23.48796875 110.14226562 22.375 110.125 C21.28703125 110.11597656 20.1990625 110.10695313 19.078125 110.09765625 C16.38519848 110.07403409 13.69270745 110.04109556 11 110 C11 112.97 11 115.94 11 119 C11.68626465 118.98952637 12.3725293 118.97905273 13.07958984 118.96826172 C16.17802289 118.92678126 19.27639761 118.90069931 22.375 118.875 C23.45523437 118.85824219 24.53546875 118.84148437 25.6484375 118.82421875 C26.6796875 118.81777344 27.7109375 118.81132812 28.7734375 118.8046875 C30.20308838 118.78897705 30.20308838 118.78897705 31.66162109 118.77294922 C34 119 34 119 36 121 C36.125 124.125 36.125 124.125 36 127 C36.66541306 126.98889694 37.33082611 126.97779388 38.0164032 126.96635437 C44.94300919 126.85572341 51.86936418 126.78031661 58.79663086 126.7253418 C61.3816955 126.70019999 63.96668907 126.66608185 66.55151367 126.62280273 C70.26759374 126.56214078 73.98273386 126.53378581 77.69921875 126.51171875 C79.43228523 126.47300911 79.43228523 126.47300911 81.20036316 126.43351746 C89.21301049 126.43071751 89.21301049 126.43071751 93.23364258 129.33911133 C95.3969614 132.59799341 95.73446922 134.16443851 95 138 C92.93467747 140.63194644 91.75927907 141.85783473 88.43096924 142.48101807 C87.46278259 142.47213562 86.49459595 142.46325317 85.49707031 142.45410156 C84.39623108 142.45379944 83.29539185 142.45349731 82.16119385 142.45318604 C80.97878113 142.43254089 79.79636841 142.41189575 78.578125 142.390625 C77.36300232 142.38496521 76.14787964 142.37930542 74.89593506 142.37347412 C71.01355657 142.35107734 67.13209972 142.30087187 63.25 142.25 C60.61850291 142.2299394 57.98699136 142.21168787 55.35546875 142.1953125 C48.90333119 142.15120153 42.45173144 142.08425519 36 142 C36.061875 143.423125 36.061875 143.423125 36.125 144.875 C36 148 36 148 34 150 C31.66162109 150.22705078 31.66162109 150.22705078 28.7734375 150.1953125 C27.2265625 150.18564453 27.2265625 150.18564453 25.6484375 150.17578125 C24.56820313 150.15902344 23.48796875 150.14226562 22.375 150.125 C21.28703125 150.11597656 20.1990625 150.10695312 19.078125 150.09765625 C16.38519848 150.07403409 13.69270745 150.04109556 11 150 C11 152.97 11 155.94 11 159 C11.68626465 158.98952637 12.3725293 158.97905273 13.07958984 158.96826172 C16.17802289 158.92678126 19.27639761 158.90069931 22.375 158.875 C23.45523437 158.85824219 24.53546875 158.84148437 25.6484375 158.82421875 C26.6796875 158.81777344 27.7109375 158.81132812 28.7734375 158.8046875 C30.20308838 158.78897705 30.20308838 158.78897705 31.66162109 158.77294922 C34 159 34 159 36 161 C36.125 164.125 36.125 164.125 36 167 C36.66541306 166.98889694 37.33082611 166.97779388 38.0164032 166.96635437 C44.94300919 166.85572341 51.86936418 166.78031661 58.79663086 166.7253418 C61.3816955 166.70019999 63.96668907 166.66608185 66.55151367 166.62280273 C70.26759374 166.56214078 73.98273386 166.53378581 77.69921875 166.51171875 C79.43228523 166.47300911 79.43228523 166.47300911 81.20036316 166.43351746 C89.21301049 166.43071751 89.21301049 166.43071751 93.23364258 169.33911133 C95.3969614 172.59799341 95.73446922 174.16443851 95 178 C92.93467747 180.63194644 91.75927907 181.85783473 88.43096924 182.48101807 C87.46278259 182.47213562 86.49459595 182.46325317 85.49707031 182.45410156 C84.39623108 182.45379944 83.29539185 182.45349731 82.16119385 182.45318604 C80.97878113 182.43254089 79.79636841 182.41189575 78.578125 182.390625 C77.36300232 182.38496521 76.14787964 182.37930542 74.89593506 182.37347412 C71.01355657 182.35107734 67.13209972 182.30087187 63.25 182.25 C60.61850291 182.2299394 57.98699136 182.21168787 55.35546875 182.1953125 C48.90333119 182.15120153 42.45173144 182.08425519 36 182 C36.061875 183.423125 36.061875 183.423125 36.125 184.875 C36 188 36 188 34 190 C26.41 190 18.82 190 11 190 C11 213.43 11 236.86 11 261 C18.59 261 26.18 261 34 261 C36 263 36 263 36.125 266.125 C36.08375 267.07375 36.0425 268.0225 36 269 C36.66541306 268.98889694 37.33082611 268.97779388 38.0164032 268.96635437 C44.94300919 268.85572341 51.86936418 268.78031661 58.79663086 268.7253418 C61.3816955 268.70019999 63.96668907 268.66608185 66.55151367 268.62280273 C70.26759374 268.56214078 73.98273386 268.53378581 77.69921875 268.51171875 C79.43228523 268.47300911 79.43228523 268.47300911 81.20036316 268.43351746 C89.21301049 268.43071751 89.21301049 268.43071751 93.23364258 271.33911133 C95.3969614 274.59799341 95.73446922 276.16443851 95 280 C92.93467747 282.63194644 91.75927907 283.85783473 88.43096924 284.48101807 C87.46278259 284.47213562 86.49459595 284.46325317 85.49707031 284.45410156 C84.39623108 284.45379944 83.29539185 284.45349731 82.16119385 284.45318604 C80.97878113 284.43254089 79.79636841 284.41189575 78.578125 284.390625 C76.75544098 284.38213531 76.75544098 284.38213531 74.89593506 284.37347412 C71.01355657 284.35107734 67.13209972 284.30087187 63.25 284.25 C60.61850291 284.2299394 57.98699136 284.21168787 55.35546875 284.1953125 C48.90333119 284.15120153 42.45173144 284.08425519 36 284 C36.04125 284.94875 36.0825 285.8975 36.125 286.875 C36 290 36 290 34 292 C31.66162109 292.22705078 31.66162109 292.22705078 28.7734375 292.1953125 C27.7421875 292.18886719 26.7109375 292.18242187 25.6484375 292.17578125 C24.56820313 292.15902344 23.48796875 292.14226562 22.375 292.125 C21.28703125 292.11597656 20.1990625 292.10695313 19.078125 292.09765625 C16.38519848 292.07403409 13.69270745 292.04109556 11 292 C11 294.97 11 297.94 11 301 C11.68626465 300.98952637 12.3725293 300.97905273 13.07958984 300.96826172 C16.17802289 300.92678126 19.27639761 300.90069931 22.375 300.875 C23.45523437 300.85824219 24.53546875 300.84148437 25.6484375 300.82421875 C26.6796875 300.81777344 27.7109375 300.81132812 28.7734375 300.8046875 C29.72653809 300.79421387 30.67963867 300.78374023 31.66162109 300.77294922 C34 301 34 301 36 303 C36.125 306.125 36.125 306.125 36 309 C36.66541306 308.98889694 37.33082611 308.97779388 38.0164032 308.96635437 C44.94300919 308.85572341 51.86936418 308.78031661 58.79663086 308.7253418 C61.3816955 308.70019999 63.96668907 308.66608185 66.55151367 308.62280273 C70.26759374 308.56214078 73.98273386 308.53378581 77.69921875 308.51171875 C79.43228523 308.47300911 79.43228523 308.47300911 81.20036316 308.43351746 C89.21301049 308.43071751 89.21301049 308.43071751 93.23364258 311.33911133 C95.3969614 314.59799341 95.73446922 316.16443851 95 320 C92.93467747 322.63194644 91.75927907 323.85783473 88.43096924 324.48101807 C87.46278259 324.47213562 86.49459595 324.46325317 85.49707031 324.45410156 C84.39623108 324.45379944 83.29539185 324.45349731 82.16119385 324.45318604 C80.97878113 324.43254089 79.79636841 324.41189575 78.578125 324.390625 C76.75544098 324.38213531 76.75544098 324.38213531 74.89593506 324.37347412 C71.01355657 324.35107734 67.13209972 324.30087187 63.25 324.25 C60.61850291 324.2299394 57.98699136 324.21168787 55.35546875 324.1953125 C48.90333119 324.15120153 42.45173144 324.08425519 36 324 C36.04125 324.94875 36.0825 325.8975 36.125 326.875 C36 330 36 330 34 332 C31.66162109 332.22705078 31.66162109 332.22705078 28.7734375 332.1953125 C27.7421875 332.18886719 26.7109375 332.18242187 25.6484375 332.17578125 C24.56820313 332.15902344 23.48796875 332.14226562 22.375 332.125 C21.28703125 332.11597656 20.1990625 332.10695313 19.078125 332.09765625 C16.38519848 332.07403409 13.69270745 332.04109556 11 332 C11.03927612 333.43666016 11.03927612 333.43666016 11.0793457 334.90234375 C11.17049127 338.48787674 11.22747921 342.07330942 11.2746582 345.65966797 C11.29965732 347.20574212 11.33366902 348.75169982 11.37719727 350.29736328 C11.80257432 365.80110569 11.80257432 365.80110569 7.3269043 371.61572266 C3.18650406 375.93514663 -0.81253393 378.73373167 -6.87910461 379.24050903 C-7.93389511 379.23606781 -8.98868561 379.23162659 -10.07543945 379.22705078 C-11.87674065 379.22682419 -11.87674065 379.22682419 -13.71443176 379.22659302 C-15.64436226 379.21110916 -15.64436226 379.21110916 -17.61328125 379.1953125 C-18.95134774 379.19157912 -20.28941697 379.18873368 -21.62748718 379.18673706 C-25.13741699 379.17912616 -28.64717945 379.15949982 -32.15704346 379.1373291 C-35.74334449 379.11681564 -39.32967274 379.10772362 -42.91601562 379.09765625 C-49.94407885 379.07625129 -56.97203138 379.04214631 -64 379 C-63.97381592 379.97759277 -63.94763184 380.95518555 -63.9206543 381.96240234 C-63.82928063 385.63371352 -63.77243963 389.30492705 -63.7253418 392.97705078 C-63.70039374 394.55795259 -63.66642195 396.13874142 -63.62280273 397.71923828 C-63.33040249 408.59652728 -63.71951196 416.75942322 -71.0625 425.4375 C-71.701875 425.953125 -72.34125 426.46875 -73 427 C-73.639375 427.53625 -74.27875 428.0725 -74.9375 428.625 C-81.69802649 433.13201766 -89.19475485 432.76930548 -97 432 C-103.76721863 430.02107445 -109.40028974 426.1340857 -113 420 C-116 412 -116 412 -116 379 C-158.24 379 -200.48 379 -244 379 C-244 390.22 -244 401.44 -244 413 C-249.64864865 424.2972973 -249.64864865 424.2972973 -253 427 C-253.9590625 427.804375 -253.9590625 427.804375 -254.9375 428.625 C-261.69802649 433.13201766 -269.19475485 432.76930548 -277 432 C-283.76721863 430.02107445 -289.40028974 426.1340857 -293 420 C-297.11640797 412.08908325 -296.3340968 403.67594898 -296.1875 395 C-296.17242973 393.44662752 -296.15874546 391.89324094 -296.14648438 390.33984375 C-296.11365497 386.55954385 -296.06200254 382.77992937 -296 379 C-296.73391968 379.00888245 -297.46783936 379.01776489 -298.22399902 379.0269165 C-305.16743654 379.10732946 -312.11080374 379.16809949 -319.05458832 379.20724869 C-322.62383519 379.22805315 -326.19269474 379.25623769 -329.76171875 379.30175781 C-333.21120466 379.345474 -336.66031992 379.36919071 -340.11006165 379.37950897 C-342.05539182 379.39041005 -344.00057452 379.42159466 -345.94567871 379.45318604 C-353.13023279 379.45499392 -357.92469581 378.94263806 -364 375 C-366.5625 372.4375 -366.5625 372.4375 -368 370 C-367.67 369.01 -367.34 368.02 -367 367 C-366.01 367.33 -365.02 367.66 -364 368 C-362.07461661 368.09471959 -360.14606854 368.12914293 -358.21835804 368.13142776 C-357.00509682 368.13526891 -355.79183561 368.13911005 -354.5418089 368.1430676 C-353.18842044 368.14228731 -351.83503202 368.14140852 -350.48164368 368.14044189 C-349.04932471 368.14302487 -347.61700647 368.14603784 -346.18468922 368.1494453 C-342.23916088 368.15752668 -338.29365072 368.1593055 -334.34811509 368.16004276 C-330.09643637 368.16189137 -325.84476713 368.16943777 -321.59309387 368.17617798 C-312.29137943 368.18977036 -302.98966928 368.19578756 -293.68794656 368.20018864 C-287.8811428 368.20294979 -282.0743407 368.20718693 -276.26753807 368.21169281 C-260.19416184 368.22388714 -244.12078695 368.23418582 -228.0474062 368.2375679 C-227.01829534 368.23778747 -225.98918448 368.23800703 -224.92888845 368.23823325 C-223.38149756 368.23856067 -223.38149756 368.23856067 -221.80284625 368.2388947 C-219.71239555 368.23933817 -217.62194484 368.23978473 -215.53149414 368.24023438 C-214.49455519 368.2404558 -213.45761624 368.24067723 -212.38925489 368.24090537 C-195.58832783 368.2448531 -178.78744416 368.26230563 -161.98653386 368.2855939 C-144.74240929 368.30930379 -127.49830649 368.3217696 -110.25416535 368.32293582 C-100.57019482 368.32385284 -90.8862808 368.32961175 -81.20232582 368.34775543 C-72.9556578 368.36315159 -64.70906374 368.36827978 -56.46238408 368.36001733 C-52.25483777 368.35610898 -48.04744042 368.35704939 -43.83991241 368.37107468 C-39.98632903 368.38380261 -36.1330067 368.38262591 -32.27942374 368.37048396 C-30.8870494 368.36852503 -29.49465664 368.37161453 -28.10230819 368.38032833 C-16.29218027 368.54627363 -16.29218027 368.54627363 -5.9765625 363.3515625 C-5.53054688 362.78179687 -5.08453125 362.21203125 -4.625 361.625 C-4.16351563 361.06039063 -3.70203125 360.49578125 -3.2265625 359.9140625 C-0.47240259 355.61616965 0.249693 351.94228693 0.24609566 346.87182903 C0.25007775 345.63223515 0.25405985 344.39264127 0.25816262 343.11548394 C0.25245691 341.74281597 0.24656572 340.37014876 0.24050903 338.9974823 C0.2413812 337.53711173 0.24313239 336.07674147 0.24568737 334.61637288 C0.25016268 330.60287404 0.24215469 326.58948178 0.23213124 322.57599652 C0.2235017 318.24816396 0.22641655 313.92033752 0.22793579 309.59249878 C0.22898496 302.09404766 0.22270505 294.59563132 0.21146011 287.09718895 C0.19521236 276.25567822 0.18999785 265.41418433 0.18748413 254.57266275 C0.18310589 236.98340951 0.16979328 219.39417481 0.15087891 201.80493164 C0.13252345 184.717693 0.11836531 167.6304594 0.10986328 150.54321289 C0.10933783 149.49011707 0.10881239 148.43702125 0.10827102 147.35201343 C0.10566096 142.06898948 0.10313354 136.7859655 0.10064721 131.50294149 C0.0799107 87.66861482 0.04468165 43.83430836 0 0 Z " fill="#2366D2" transform="translate(394,68)"/>
<path d="M0 0 C7.75 0.75 7.75 0.75 10 3 C10.25299966 5.50263798 10.25299966 5.50263798 10.25726891 8.73668098 C10.2637178 9.96536813 10.27016669 11.19405527 10.276811 12.45997536 C10.27386826 13.8359577 10.27073278 15.21193963 10.26742554 16.58792114 C10.27115892 18.04000265 10.27575918 19.49208215 10.28115618 20.94415843 C10.29344089 24.94897324 10.2931193 28.95370487 10.29076743 32.95853424 C10.29036062 37.27227072 10.30138555 41.58598004 10.31088257 45.89970398 C10.3275249 54.35775398 10.33299362 62.8157761 10.33410732 71.2738411 C10.33505654 78.14872968 10.33916048 85.02360905 10.34550858 91.89849472 C10.36313197 111.38030533 10.37234606 130.86209386 10.37084763 150.3439125 C10.37076772 151.39508934 10.3706878 152.44626619 10.37060547 153.52929688 C10.37052371 154.5817544 10.37044195 155.63421193 10.37035771 156.71856211 C10.36954512 173.76853196 10.3886731 190.81841339 10.4168822 207.86835767 C10.44560327 225.36557794 10.45942284 242.86275509 10.45769465 260.35999954 C10.45703034 270.18708073 10.46254003 280.01406932 10.48405075 289.8411293 C10.50225261 298.21044454 10.5066183 306.57962523 10.4930319 314.94895168 C10.48649641 319.21931276 10.48640574 323.48941566 10.5037384 327.75975227 C10.51944938 331.67080976 10.51662595 335.58140394 10.49917014 339.49244998 C10.49609579 340.90571501 10.49974911 342.31901445 10.51089029 343.7322389 C10.57612202 352.59527939 10.19620744 359.03736198 4.2890625 366.0234375 C3.73992187 366.46945312 3.19078125 366.91546875 2.625 367.375 C2.08101563 367.83648437 1.53703125 368.29796875 0.9765625 368.7734375 C-3.51346033 371.55973625 -7.95492853 372.24985214 -13.16195869 372.24609566 C-14.38365985 372.25007775 -15.60536101 372.25405985 -16.86408341 372.25816262 C-18.21140184 372.25245728 -19.55871949 372.2465661 -20.90603638 372.24050903 C-22.34379524 372.24138149 -23.78155379 372.2431332 -25.21931064 372.24568737 C-29.16582058 372.25015727 -33.11222187 372.24216204 -37.05871797 372.23213124 C-41.31639745 372.22349361 -45.57407081 372.22641716 -49.83175659 372.22793579 C-57.20795264 372.22898453 -64.5841133 372.22270878 -71.96030045 372.21146011 C-82.62937592 372.19520093 -93.2984343 372.18999659 -103.96752082 372.18748413 C-121.28320716 372.18310654 -138.59887467 372.16979687 -155.91455078 372.15087891 C-172.7250967 372.13253197 -189.5356375 372.11836862 -206.34619141 372.10986328 C-207.38182791 372.10933783 -208.41746442 372.10881239 -209.48448385 372.10827102 C-214.6805523 372.1056607 -219.87662079 372.10313322 -225.07268929 372.10064721 C-265.18293853 372.0813597 -305.29317068 372.05032621 -345.4034034 372.00932419 C-346.61988906 372.0080908 -347.83637472 372.0068574 -349.08972359 372.00558662 C-350.66827871 372.00396041 -350.66827871 372.00396041 -352.27872384 372.00230134 C-354.51914855 372.00040665 -356.75957448 372 -359 372 C-361 370 -361 370 -361.1953125 368.0546875 C-361.13020833 366.03645833 -361.06510417 364.01822917 -361 362 C-360.27302823 361.99940291 -359.54605646 361.99880582 -358.79705524 361.99819064 C-315.71653832 361.96230139 -272.63609152 361.90566965 -229.55563939 361.82207905 C-224.38361014 361.81206152 -219.21158057 361.8022174 -214.03955078 361.79248047 C-212.49505536 361.78956841 -212.49505536 361.78956841 -210.91935802 361.78659752 C-194.24436077 361.75557135 -177.56937728 361.73859514 -160.89435661 361.72680578 C-143.78589094 361.71439743 -126.67749754 361.68690314 -109.56907749 361.64538693 C-99.01115671 361.62024253 -88.45335578 361.60688341 -77.89540464 361.60857043 C-70.65669086 361.60860017 -63.41809923 361.59398427 -56.17943305 361.56783572 C-52.00226597 361.55317935 -47.82534937 361.54499571 -43.64816093 361.55419731 C-39.82210868 361.56248282 -35.99655977 361.55233375 -32.17058218 361.52766338 C-30.13452435 361.51929018 -28.09841487 361.53051986 -26.06237507 361.54249835 C-18.41711393 361.47062529 -12.33101964 361.04666045 -6.48900223 355.58820891 C-2.16185315 350.74806292 -0.75215593 346.36780524 -0.73828697 339.98115063 C-0.73082148 338.76594052 -0.72335599 337.5507304 -0.71566427 336.29869574 C-0.71744098 334.95354004 -0.71940186 333.60838457 -0.7215271 332.26322937 C-0.71652392 330.83172995 -0.71064806 329.40023336 -0.70397437 327.96874076 C-0.68816296 324.0350785 -0.68474306 320.10148765 -0.68332577 316.16779745 C-0.67963372 311.92583452 -0.66447921 307.68391085 -0.65071106 303.44197083 C-0.62842829 296.09250486 -0.61342112 288.74305285 -0.60334396 281.39356041 C-0.58876356 270.76740961 -0.56322852 260.1413074 -0.53501268 249.5151851 C-0.48953308 232.27535435 -0.45292309 215.03551662 -0.421875 197.7956543 C-0.39169424 181.04792045 -0.35734615 164.30020372 -0.31738281 147.55249023 C-0.31492126 146.52030338 -0.31245972 145.48811653 -0.30992357 144.42465129 C-0.29754906 139.24651564 -0.28509251 134.06838019 -0.27259517 128.89024484 C-0.16900988 85.92685374 -0.07981239 42.9634414 0 0 Z " fill="#367CE1" transform="translate(385,65)"/>
<path d="M0 0 C2.20383585 -0.00969571 4.40673525 -0.04070084 6.61035156 -0.07226562 C8.00878351 -0.07879652 9.40722215 -0.08404665 10.80566406 -0.08789062 C12.08231934 -0.09723633 13.35897461 -0.10658203 14.67431641 -0.11621094 C17.84472656 0.24023438 17.84472656 0.24023438 19.84716797 1.32324219 C21.49790329 4.4954335 20.64803312 6.83291622 19.84472656 10.24023438 C18.84634672 12.74726556 17.81789161 15.10507066 16.63378906 17.51757812 C16.30941864 18.19825851 15.98504822 18.8789389 15.65084839 19.58024597 C14.59890782 21.78356232 13.53431758 23.98050692 12.46972656 26.17773438 C11.37676606 28.46009668 10.28714994 30.74403704 9.1975708 33.02801514 C8.46752787 34.55756108 7.73636693 36.08657391 7.00408936 37.61505127 C3.70859991 44.49786177 0.50953214 51.4214046 -2.65527344 58.36523438 C-3.11724121 59.37706787 -3.57920898 60.38890137 -4.05517578 61.43139648 C-5.09016072 63.70027817 -6.12368503 65.96980693 -7.15527344 68.24023438 C-5.41455566 68.20881348 -5.41455566 68.20881348 -3.63867188 68.17675781 C0.66995894 68.10431631 4.97853601 68.05841967 9.28759766 68.02050781 C11.15194757 68.00040176 13.01623451 67.97311258 14.88037109 67.93847656 C17.56135604 67.88991317 20.24150679 67.867256 22.92285156 67.84960938 C23.75528381 67.82896423 24.58771606 67.80831909 25.44537354 67.78704834 C31.22359855 67.78481167 31.22359855 67.78481167 34.40161133 70.11499023 C35.84472656 72.24023438 35.84472656 72.24023438 35.85644531 74.63476562 C34.58420831 77.91114432 32.85793314 80.18133873 30.65722656 82.92773438 C29.74172005 84.083872 28.82636392 85.24012872 27.91113281 86.39648438 C27.41629395 87.01523437 26.92145508 87.63398438 26.41162109 88.27148438 C24.19896958 91.0516062 22.0238019 93.86023414 19.84667969 96.66821289 C18.06650962 98.96412621 16.2823103 101.25685537 14.49707031 103.54882812 C12.07079074 106.66462038 9.64629974 109.78178854 7.22363281 112.90039062 C0.58043538 121.45096009 -6.0819582 129.98570564 -12.78027344 138.49316406 C-15.30324355 141.69884128 -17.822738 144.90725004 -20.34277344 148.11523438 C-21.27374929 149.300141 -22.20473752 150.48503789 -23.13574219 151.66992188 C-24.13541016 152.94222656 -24.13541016 152.94222656 -25.15527344 154.24023438 C-26.47527344 153.91023437 -27.79527344 153.58023438 -29.15527344 153.24023438 C-27.84127331 146.77763968 -26.06775975 140.71944253 -23.81933594 134.52539062 C-23.49871185 133.629608 -23.17808777 132.73382538 -22.8477478 131.81089783 C-22.17284144 129.92844174 -21.49536418 128.04690556 -20.81542969 126.16625977 C-19.78505348 123.31595727 -18.76243932 120.46296623 -17.74121094 117.609375 C-17.0802053 115.76871758 -16.41876128 113.92821751 -15.75683594 112.08789062 C-15.4556485 111.24903824 -15.15446106 110.41018585 -14.84414673 109.5459137 C-12.7377303 103.72604315 -10.48569868 97.97392815 -8.15527344 92.24023438 C-9.35128174 92.25594482 -10.54729004 92.27165527 -11.77954102 92.2878418 C-16.21306637 92.34210498 -20.64656232 92.37657127 -25.08032227 92.4050293 C-26.99996882 92.42012418 -28.91958084 92.44060211 -30.83911133 92.46655273 C-33.59692907 92.50290546 -36.35429124 92.51995349 -39.11230469 92.53320312 C-39.971772 92.54868698 -40.83123932 92.56417084 -41.7167511 92.5801239 C-42.51735458 92.58035049 -43.31795807 92.58057709 -44.14282227 92.58081055 C-45.19872307 92.5908033 -45.19872307 92.5908033 -46.2759552 92.60099792 C-48.75710637 92.12470344 -49.63205465 91.22366007 -51.15527344 89.24023438 C-52.26840164 82.43778426 -49.22803235 77.36192628 -46.28027344 71.36523438 C-45.18099269 69.06256085 -44.08626358 66.75771108 -42.99511719 64.45117188 C-42.69759048 63.82392212 -42.40006378 63.19667236 -42.09352112 62.55041504 C-37.39468749 52.58526133 -33.07354228 42.44544575 -28.69317627 32.33746338 C-14.69018404 0.03922613 -14.69018404 0.03922613 0 0 Z " fill="#FCC71E" transform="translate(223.1552734375,178.759765625)"/>
<path d="M0 0 C0.81404297 -0.00644531 1.62808594 -0.01289062 2.46679688 -0.01953125 C3.30404297 -0.00019531 4.14128906 0.01914063 5.00390625 0.0390625 C5.83728516 0.01972656 6.67066406 0.00039062 7.52929688 -0.01953125 C8.75229492 -0.00986328 8.75229492 -0.00986328 10 0 C10.73275146 0.00563965 11.46550293 0.0112793 12.22045898 0.01708984 C15.90960449 1.0344939 18.41656135 2.52815288 20.56640625 5.6640625 C21.48908184 10.06642608 21.37518255 14.42824019 21.3269043 18.91210938 C21.33340105 20.27418923 21.34246463 21.6362589 21.35389709 22.99830627 C21.376952 26.69073317 21.36227596 30.38212473 21.33942771 34.0745182 C21.32049399 37.94125438 21.33167281 41.80792185 21.33833313 45.67468262 C21.34467128 52.16789164 21.3264169 58.66068648 21.29370117 65.15380859 C21.25620711 72.65726494 21.25798577 80.15993669 21.28074235 87.66343451 C21.30170203 94.8860782 21.29441147 102.10843234 21.2744236 109.33106995 C21.26644377 112.40279933 21.2684215 115.47428338 21.2784481 118.54600525 C21.2890106 122.16441937 21.27484191 125.78192078 21.24170494 129.40019035 C21.22960107 131.35888879 21.24201142 133.31769073 21.25515747 135.27638245 C21.12790676 144.84796935 21.12790676 144.84796935 18.14997864 147.92956543 C13.94613522 150.75184133 10.77704894 150.9098872 5.81640625 150.9765625 C5.11257813 151.00556641 4.40875 151.03457031 3.68359375 151.06445312 C-1.46885559 151.12670391 -4.34186158 150.04664477 -8.43359375 146.6640625 C-9.74159337 144.04806326 -9.57143093 142.11099548 -9.5874939 139.18022156 C-9.59609436 138.01513062 -9.60469482 136.85003967 -9.61355591 135.64964294 C-9.61781586 134.36493607 -9.62207581 133.08022919 -9.62646484 131.7565918 C-9.63436527 130.39496653 -9.64263418 129.03334337 -9.65124512 127.67172241 C-9.67747142 123.19392905 -9.69277298 118.71612631 -9.70703125 114.23828125 C-9.71239061 112.69742133 -9.71776812 111.15656147 -9.7231636 109.61570168 C-9.7447929 103.20674672 -9.7635301 96.79779429 -9.774786 90.38881207 C-9.79102857 81.2005928 -9.82421273 72.01279621 -9.88118684 62.8247363 C-9.91987239 56.36607246 -9.93941699 49.90752174 -9.94470656 43.44874507 C-9.94836189 39.59024321 -9.96040143 35.73219209 -9.9928093 31.87381554 C-10.02286631 28.24327324 -10.02921088 24.61345493 -10.01742554 20.98281479 C-10.01709932 19.01683024 -10.04158077 17.05089053 -10.06680298 15.08506775 C-9.99868579 5.47526611 -9.99868579 5.47526611 -7.03565979 2.3735199 C-4.39777273 0.64052946 -3.11224118 0.02399041 0 0 Z " fill="#D0D2D4" transform="translate(354.43359375,107.3359375)"/>
<path d="M0 0 C17.16 0 34.32 0 52 0 C52.1546875 8.105625 52.1546875 8.105625 52.3125 16.375 C52.35802002 18.05899902 52.40354004 19.74299805 52.45043945 21.47802734 C52.60778775 31.40115201 51.57184324 38.59691253 44.9375 46.4375 C43.9784375 47.2109375 43.9784375 47.2109375 43 48 C42.360625 48.53625 41.72125 49.0725 41.0625 49.625 C34.30197351 54.13201766 26.80524515 53.76930548 19 53 C12.23278137 51.02107445 6.59971026 47.1340857 3 41 C-1.12092335 33.0804056 -0.33131137 24.68807305 -0.1875 16 C-0.0946875 8.08 -0.0946875 8.08 0 0 Z " fill="#808285" transform="translate(278,447)"/>
<path d="M0 0 C17.16 0 34.32 0 52 0 C52.1546875 8.105625 52.1546875 8.105625 52.3125 16.375 C52.35802002 18.05899902 52.40354004 19.74299805 52.45043945 21.47802734 C52.60778775 31.40115201 51.57184324 38.59691253 44.9375 46.4375 C43.9784375 47.2109375 43.9784375 47.2109375 43 48 C42.360625 48.53625 41.72125 49.0725 41.0625 49.625 C34.30197351 54.13201766 26.80524515 53.76930548 19 53 C12.23278137 51.02107445 6.59971026 47.1340857 3 41 C-1.12092335 33.0804056 -0.33131137 24.68807305 -0.1875 16 C-0.0946875 8.08 -0.0946875 8.08 0 0 Z " fill="#808285" transform="translate(98,447)"/>
<path d="M0 0 C6.53732632 4.0306391 11.17233366 10.22270026 13.5 17.5 C13.74269829 20.29042139 13.8540212 22.84328753 13.79296875 25.62109375 C13.78994751 26.2824231 13.78692627 26.94375244 13.78381348 27.62512207 C13.76828188 30.06274332 13.72639954 32.50013966 13.6875 34.9375 C13.625625 40.403125 13.56375 45.86875 13.5 51.5 C-3.66 51.5 -20.82 51.5 -38.5 51.5 C-38.5825 46.240625 -38.665 40.98125 -38.75 35.5625 C-38.78641602 33.921604 -38.82283203 32.28070801 -38.86035156 30.59008789 C-38.93384486 20.89786354 -37.70493162 14.40166013 -32.375 6.25 C-23.8020014 -1.95025953 -11.23244657 -4.87322098 0 0 Z " fill="#808285" transform="translate(316.5,13.5)"/>
<path d="M0 0 C6.53732632 4.0306391 11.17233366 10.22270026 13.5 17.5 C13.74269829 20.29042139 13.8540212 22.84328753 13.79296875 25.62109375 C13.78994751 26.2824231 13.78692627 26.94375244 13.78381348 27.62512207 C13.76828188 30.06274332 13.72639954 32.50013966 13.6875 34.9375 C13.625625 40.403125 13.56375 45.86875 13.5 51.5 C-3.66 51.5 -20.82 51.5 -38.5 51.5 C-38.5825 46.240625 -38.665 40.98125 -38.75 35.5625 C-38.78641602 33.921604 -38.82283203 32.28070801 -38.86035156 30.59008789 C-38.93384486 20.89786354 -37.70493162 14.40166013 -32.375 6.25 C-23.8020014 -1.95025953 -11.23244657 -4.87322098 0 0 Z " fill="#808285" transform="translate(136.5,13.5)"/>
<path d="M0 0 C0.81404297 -0.00644531 1.62808594 -0.01289063 2.46679688 -0.01953125 C3.30404297 -0.00019531 4.14128906 0.01914062 5.00390625 0.0390625 C5.83728516 0.01972656 6.67066406 0.00039063 7.52929688 -0.01953125 C8.75229492 -0.00986328 8.75229492 -0.00986328 10 0 C10.73275146 0.00563965 11.46550293 0.0112793 12.22045898 0.01708984 C15.94893119 1.04533954 18.4802075 2.42463312 20.56640625 5.6640625 C21.46729229 10.06457589 21.38291892 14.40440716 21.328125 18.8828125 C21.33149368 20.17344604 21.33486237 21.46407959 21.33833313 22.79382324 C21.34265743 25.52104862 21.32588542 28.24708859 21.29370117 30.97412109 C21.25391647 34.46164183 21.26322276 37.9469409 21.28793621 41.43453217 C21.30556742 44.77167033 21.28412617 48.10817571 21.265625 51.4453125 C21.27610115 53.31890442 21.27610115 53.31890442 21.28678894 55.23034668 C21.12993996 64.85108294 21.12993996 64.85108294 18.14770508 67.92773438 C13.94601199 70.75403167 10.77692885 70.90988881 5.81640625 70.9765625 C5.11257813 71.00556641 4.40875 71.03457031 3.68359375 71.06445312 C-1.46885559 71.12670391 -4.34186158 70.04664477 -8.43359375 66.6640625 C-9.74727716 64.03669569 -9.58967673 62.04274281 -9.62646484 59.1003418 C-9.64252777 57.93540695 -9.6585907 56.77047211 -9.67514038 55.57023621 C-9.71949831 50.24025936 -9.76109467 44.91043073 -9.78369141 39.58032227 C-9.79702699 36.76618922 -9.82487094 33.95278198 -9.86572266 31.13891602 C-9.92452393 27.08857982 -9.94235129 23.03902201 -9.95703125 18.98828125 C-9.97970062 17.72980881 -10.00237 16.47133636 -10.02572632 15.17472839 C-10.00466786 6.49733991 -10.00466786 6.49733991 -7.17797852 2.37280273 C-4.47349389 0.68890558 -3.13596313 0.02417326 0 0 Z " fill="#D0D2D4" transform="translate(354.43359375,329.3359375)"/>
<path d="M0 0 C1.60332791 -0.08121924 3.20784026 -0.13929134 4.8125 -0.1875 C6.15248047 -0.23970703 6.15248047 -0.23970703 7.51953125 -0.29296875 C10 0 10 0 11.88671875 1.07421875 C13.67193844 4.16233562 12.68792452 6.57542232 12 10 C11.00162015 12.50703118 9.97316505 14.86483628 8.7890625 17.27734375 C8.46469208 17.95802414 8.14032166 18.63870453 7.80612183 19.3400116 C6.75418126 21.54332795 5.68959102 23.74027255 4.625 25.9375 C3.5320395 28.2198623 2.44242338 30.50380266 1.35284424 32.78778076 C0.62280131 34.31732671 -0.10835963 35.84633954 -0.84063721 37.37481689 C-4.13612665 44.25762739 -7.33519442 51.18117023 -10.5 58.125 C-10.96196777 59.1368335 -11.42393555 60.14866699 -11.89990234 61.19116211 C-12.93488729 63.46004379 -13.9684116 65.72957255 -15 68 C-13.25928223 67.9685791 -13.25928223 67.9685791 -11.48339844 67.93652344 C-7.17476762 67.86408193 -2.86619055 67.81818529 1.44287109 67.78027344 C3.30722101 67.76016739 5.17150794 67.7328782 7.03564453 67.69824219 C9.71662948 67.64967879 12.39678023 67.62702162 15.078125 67.609375 C15.91055725 67.58872986 16.7429895 67.56808472 17.60064697 67.54681396 C23.37887198 67.54457729 23.37887198 67.54457729 26.55688477 69.87475586 C28 72 28 72 28.01171875 74.39453125 C26.73948175 77.67090994 25.01320658 79.94110435 22.8125 82.6875 C21.89699349 83.84363763 20.98163736 84.99989434 20.06640625 86.15625 C19.57156738 86.775 19.07672852 87.39375 18.56689453 88.03125 C16.35424301 90.81137182 14.17907534 93.61999977 12.00195312 96.42797852 C10.22178306 98.72389183 8.43758374 101.016621 6.65234375 103.30859375 C4.22606418 106.42438601 1.80157317 109.54155417 -0.62109375 112.66015625 C-7.26429119 121.21072571 -13.92668476 129.74547127 -20.625 138.25292969 C-23.14797011 141.45860691 -25.66746457 144.66701567 -28.1875 147.875 C-29.11847585 149.05990663 -30.04946409 150.24480352 -30.98046875 151.4296875 C-31.64691406 152.27789062 -32.31335938 153.12609375 -33 154 C-34.32 153.67 -35.64 153.34 -37 153 C-35.83786627 147.09362624 -34.5049801 141.49168714 -32 136 C-30.68193396 135.30363505 -29.34739156 134.63777598 -28 134 C-26.58907091 132.55642789 -26.58907091 132.55642789 -25.40625 130.83203125 C-24.93968994 130.19402588 -24.47312988 129.55602051 -23.99243164 128.89868164 C-23.4999292 128.2102417 -23.00742676 127.52180176 -22.5 126.8125 C-21.42786026 125.34743464 -20.35358815 123.88392771 -19.27734375 122.421875 C-18.45919189 121.3090918 -18.45919189 121.3090918 -17.62451172 120.17382812 C-15.1823528 116.90587156 -12.63042242 113.73197925 -10.0625 110.5625 C-5.11241694 104.43433148 -0.28668804 98.22006168 4.46728516 91.93847656 C7.33406377 88.1529599 10.27130602 84.46070649 13.3125 80.8125 C15.50289913 78.02717765 15.97896729 77.14722896 16.5 73.5 C16.25423759 71.06933752 16.25423759 71.06933752 15 70 C12.803692 69.85308723 10.60290597 69.77239789 8.40234375 69.71875 C7.73465469 69.70034058 7.06696564 69.68193115 6.37904358 69.66296387 C4.2319545 69.60406285 2.08478048 69.55141748 -0.0625 69.5 C-17.03807775 69.08638579 -17.03807775 69.08638579 -24 68 C-23.48130867 62.65979798 -22.08858286 58.40831582 -19.71875 53.58203125 C-19.22392372 52.54494522 -19.22392372 52.54494522 -18.71910095 51.48690796 C-18.01616877 50.01604634 -17.30907051 48.54716948 -16.59811401 47.08016968 C-15.49200412 44.79598804 -14.39859427 42.50613564 -13.30883789 40.21411133 C-11.87092134 37.19090307 -10.42995661 34.1691987 -8.98486328 31.14941406 C-6.44466765 25.83990058 -3.91287875 20.52761394 -1.4375 15.1875 C-1.06238281 14.40802002 -0.68726563 13.62854004 -0.30078125 12.82543945 C1.5308095 8.84272109 2.55025282 6.21450642 1 2 C0.505 1.01 0.505 1.01 0 0 Z " fill="#FAA91E" transform="translate(231,179)"/>
<path d="M0 0 C3.53571429 0.53571429 3.53571429 0.53571429 5 2 C5.09871093 3.87063772 5.12632177 5.74504592 5.12698364 7.61828613 C5.12980347 8.83826797 5.13262329 10.05824982 5.13552856 11.31520081 C5.13358397 12.67953506 5.13153578 14.04386917 5.12939453 15.40820312 C5.13074854 16.83528183 5.13252846 18.26236018 5.13470459 19.68943787 C5.13927902 23.57569415 5.13748933 27.461924 5.1343255 31.34818077 C5.13180195 35.4063156 5.13413943 39.46444809 5.13571167 43.52258301 C5.13753338 50.33878996 5.13512702 57.15498609 5.13037109 63.97119141 C5.12492847 71.86294245 5.12669113 79.75466767 5.1321975 87.64641809 C5.13672859 94.4098821 5.1373792 101.17333831 5.13475883 107.93680334 C5.13319603 111.981682 5.13300236 116.0265485 5.13629532 120.07142639 C5.13917397 123.87328875 5.13719845 127.67511766 5.13140106 131.47697639 C5.13007343 132.87625638 5.13046763 134.27553915 5.13266373 135.67481804 C5.13537508 137.57711566 5.13138054 139.4794194 5.12698364 141.38171387 C5.12660662 142.44877312 5.12622959 143.51583237 5.12584114 144.61522675 C5 147 5 147 4 148 C1.5 148.125 1.5 148.125 -1 148 C-2.75593362 146.24406638 -2.12996454 143.77214459 -2.13371277 141.38844299 C-2.13797775 140.16990631 -2.14224274 138.95136963 -2.14663696 137.69590759 C-2.1462874 136.33316037 -2.14582584 134.97041317 -2.14526367 133.60766602 C-2.14825358 132.18220939 -2.15165571 130.75675357 -2.15544128 129.33129883 C-2.16430263 125.44911186 -2.16662029 121.5669469 -2.16725707 117.6847508 C-2.16820441 114.44898937 -2.17188067 111.21323312 -2.17542917 107.97747368 C-2.18358184 100.34622655 -2.18601266 92.71499122 -2.18530273 85.08374023 C-2.18470172 77.19994186 -2.19525637 69.31621187 -2.2110464 61.4324308 C-2.22410231 54.67404563 -2.22948745 47.91568285 -2.22884732 41.15728515 C-2.22859176 37.11626691 -2.23147488 33.0753094 -2.24202538 29.03430367 C-2.25167369 25.23487451 -2.25180817 21.43556453 -2.24450874 17.63613129 C-2.24345881 16.23888158 -2.24584984 14.84162457 -2.2518692 13.44438744 C-2.2595343 11.54245333 -2.25376996 9.64047899 -2.24723816 7.73854065 C-2.24778293 6.67240319 -2.24832769 5.60626574 -2.24888897 4.50782108 C-2 2 -2 2 0 0 Z " fill="#5D9BF7" transform="translate(34,129)"/>
<path d="M0 0 C1.06490662 -0.01606293 2.12981323 -0.03212585 3.22698975 -0.04867554 C8.1116079 -0.09297787 12.99608737 -0.1342028 17.88085938 -0.15722656 C20.45907622 -0.17378273 23.03724723 -0.20106783 25.61523438 -0.23925781 C29.32478754 -0.29396397 33.03326205 -0.3158937 36.74316406 -0.33056641 C37.89540466 -0.35323578 39.04764526 -0.37590515 40.23480225 -0.39926147 C48.22068831 -0.37813874 48.22068831 -0.37813874 52.24023438 2.53417969 C54.40704382 5.79157268 54.74336007 7.35677804 54.00878906 11.19287109 C51.93114301 13.84953449 50.75812721 15.05461028 47.40179443 15.67388916 C46.4158429 15.66500671 45.42989136 15.65612427 44.4140625 15.64697266 C43.29320251 15.64667053 42.17234253 15.64636841 41.01751709 15.64605713 C39.81323059 15.62541199 38.60894409 15.60476685 37.36816406 15.58349609 C35.51218597 15.57500641 35.51218597 15.57500641 33.61871338 15.56634521 C30.3370097 15.54775361 27.05609625 15.51184608 23.7746582 15.4675293 C20.4230884 15.42653274 17.07148462 15.4086661 13.71972656 15.38818359 C7.14910516 15.34407014 0.57901174 15.27712186 -5.99121094 15.19287109 C-6.01806506 12.88043317 -6.03753935 10.56790839 -6.05371094 8.25537109 C-6.0653125 6.96759766 -6.07691406 5.67982422 -6.08886719 4.35302734 C-5.93473495 -0.6346918 -4.5299532 0.06184385 0 0 Z " fill="#D0D2D3" transform="translate(434.9912109375,376.80712890625)"/>
<path d="M0 0 C1.06490662 -0.01606293 2.12981323 -0.03212585 3.22698975 -0.04867554 C8.1116079 -0.09297787 12.99608737 -0.1342028 17.88085938 -0.15722656 C20.45907622 -0.17378273 23.03724723 -0.20106783 25.61523438 -0.23925781 C29.32478754 -0.29396397 33.03326205 -0.3158937 36.74316406 -0.33056641 C37.89540466 -0.35323578 39.04764526 -0.37590515 40.23480225 -0.39926147 C48.22068831 -0.37813874 48.22068831 -0.37813874 52.24023438 2.53417969 C54.40704382 5.79157268 54.74336007 7.35677804 54.00878906 11.19287109 C51.93114301 13.84953449 50.75812721 15.05461028 47.40179443 15.67388916 C46.4158429 15.66500671 45.42989136 15.65612427 44.4140625 15.64697266 C43.29320251 15.64667053 42.17234253 15.64636841 41.01751709 15.64605713 C39.81323059 15.62541199 38.60894409 15.60476685 37.36816406 15.58349609 C35.51218597 15.57500641 35.51218597 15.57500641 33.61871338 15.56634521 C30.3370097 15.54775361 27.05609625 15.51184608 23.7746582 15.4675293 C20.4230884 15.42653274 17.07148462 15.4086661 13.71972656 15.38818359 C7.14910516 15.34407014 0.57901174 15.27712186 -5.99121094 15.19287109 C-6.01806506 12.88043317 -6.03753935 10.56790839 -6.05371094 8.25537109 C-6.0653125 6.96759766 -6.07691406 5.67982422 -6.08886719 4.35302734 C-5.93473495 -0.6346918 -4.5299532 0.06184385 0 0 Z " fill="#D0D2D3" transform="translate(434.9912109375,336.80712890625)"/>
<path d="M0 0 C1.06490662 -0.01606293 2.12981323 -0.03212585 3.22698975 -0.04867554 C8.1116079 -0.09297787 12.99608737 -0.1342028 17.88085938 -0.15722656 C20.45907622 -0.17378273 23.03724723 -0.20106783 25.61523438 -0.23925781 C29.32478754 -0.29396397 33.03326205 -0.3158937 36.74316406 -0.33056641 C37.89540466 -0.35323578 39.04764526 -0.37590515 40.23480225 -0.39926147 C48.22068831 -0.37813874 48.22068831 -0.37813874 52.24023438 2.53417969 C54.40704382 5.79157268 54.74336007 7.35677804 54.00878906 11.19287109 C51.93114301 13.84953449 50.75812721 15.05461028 47.40179443 15.67388916 C46.4158429 15.66500671 45.42989136 15.65612427 44.4140625 15.64697266 C43.29320251 15.64667053 42.17234253 15.64636841 41.01751709 15.64605713 C39.81323059 15.62541199 38.60894409 15.60476685 37.36816406 15.58349609 C35.51218597 15.57500641 35.51218597 15.57500641 33.61871338 15.56634521 C30.3370097 15.54775361 27.05609625 15.51184608 23.7746582 15.4675293 C20.4230884 15.42653274 17.07148462 15.4086661 13.71972656 15.38818359 C7.14910516 15.34407014 0.57901174 15.27712186 -5.99121094 15.19287109 C-6.01806506 12.88043317 -6.03753935 10.56790839 -6.05371094 8.25537109 C-6.0653125 6.96759766 -6.07691406 5.67982422 -6.08886719 4.35302734 C-5.93473495 -0.6346918 -4.5299532 0.06184385 0 0 Z " fill="#D0D2D3" transform="translate(434.9912109375,234.80712890625)"/>
<path d="M0 0 C1.06490662 -0.01606293 2.12981323 -0.03212585 3.22698975 -0.04867554 C8.1116079 -0.09297787 12.99608737 -0.1342028 17.88085938 -0.15722656 C20.45907622 -0.17378273 23.03724723 -0.20106783 25.61523438 -0.23925781 C29.32478754 -0.29396397 33.03326205 -0.3158937 36.74316406 -0.33056641 C37.89540466 -0.35323578 39.04764526 -0.37590515 40.23480225 -0.39926147 C48.22068831 -0.37813874 48.22068831 -0.37813874 52.24023438 2.53417969 C54.40704382 5.79157268 54.74336007 7.35677804 54.00878906 11.19287109 C51.93114301 13.84953449 50.75812721 15.05461028 47.40179443 15.67388916 C46.4158429 15.66500671 45.42989136 15.65612427 44.4140625 15.64697266 C43.29320251 15.64667053 42.17234253 15.64636841 41.01751709 15.64605713 C39.81323059 15.62541199 38.60894409 15.60476685 37.36816406 15.58349609 C35.51218597 15.57500641 35.51218597 15.57500641 33.61871338 15.56634521 C30.3370097 15.54775361 27.05609625 15.51184608 23.7746582 15.4675293 C20.4230884 15.42653274 17.07148462 15.4086661 13.71972656 15.38818359 C7.14910516 15.34407014 0.57901174 15.27712186 -5.99121094 15.19287109 C-6.01806506 12.88043317 -6.03753935 10.56790839 -6.05371094 8.25537109 C-6.0653125 6.96759766 -6.07691406 5.67982422 -6.08886719 4.35302734 C-5.93473495 -0.6346918 -4.5299532 0.06184385 0 0 Z " fill="#D0D2D3" transform="translate(434.9912109375,194.80712890625)"/>
<path d="M0 0 C1.06490662 -0.01606293 2.12981323 -0.03212585 3.22698975 -0.04867554 C8.1116079 -0.09297787 12.99608737 -0.1342028 17.88085938 -0.15722656 C20.45907622 -0.17378273 23.03724723 -0.20106783 25.61523438 -0.23925781 C29.32478754 -0.29396397 33.03326205 -0.3158937 36.74316406 -0.33056641 C37.89540466 -0.35323578 39.04764526 -0.37590515 40.23480225 -0.39926147 C48.22068831 -0.37813874 48.22068831 -0.37813874 52.24023438 2.53417969 C54.40704382 5.79157268 54.74336007 7.35677804 54.00878906 11.19287109 C51.93114301 13.84953449 50.75812721 15.05461028 47.40179443 15.67388916 C46.4158429 15.66500671 45.42989136 15.65612427 44.4140625 15.64697266 C43.29320251 15.64667053 42.17234253 15.64636841 41.01751709 15.64605713 C39.81323059 15.62541199 38.60894409 15.60476685 37.36816406 15.58349609 C35.51218597 15.57500641 35.51218597 15.57500641 33.61871338 15.56634521 C30.3370097 15.54775361 27.05609625 15.51184608 23.7746582 15.4675293 C20.4230884 15.42653274 17.07148462 15.4086661 13.71972656 15.38818359 C7.14910516 15.34407014 0.57901174 15.27712186 -5.99121094 15.19287109 C-6.01806506 12.88043317 -6.03753935 10.56790839 -6.05371094 8.25537109 C-6.0653125 6.96759766 -6.07691406 5.67982422 -6.08886719 4.35302734 C-5.93473495 -0.6346918 -4.5299532 0.06184385 0 0 Z " fill="#D0D2D3" transform="translate(434.9912109375,154.80712890625)"/>
<path d="M0 0 C1.06490662 -0.01606293 2.12981323 -0.03212585 3.22698975 -0.04867554 C8.1116079 -0.09297787 12.99608737 -0.1342028 17.88085938 -0.15722656 C20.45907622 -0.17378273 23.03724723 -0.20106783 25.61523438 -0.23925781 C29.32478754 -0.29396397 33.03326205 -0.3158937 36.74316406 -0.33056641 C37.89540466 -0.35323578 39.04764526 -0.37590515 40.23480225 -0.39926147 C48.22068831 -0.37813874 48.22068831 -0.37813874 52.24023438 2.53417969 C54.40704382 5.79157268 54.74336007 7.35677804 54.00878906 11.19287109 C51.93114301 13.84953449 50.75812721 15.05461028 47.40179443 15.67388916 C46.4158429 15.66500671 45.42989136 15.65612427 44.4140625 15.64697266 C43.29320251 15.64667053 42.17234253 15.64636841 41.01751709 15.64605713 C39.81323059 15.62541199 38.60894409 15.60476685 37.36816406 15.58349609 C35.51218597 15.57500641 35.51218597 15.57500641 33.61871338 15.56634521 C30.3370097 15.54775361 27.05609625 15.51184608 23.7746582 15.4675293 C20.4230884 15.42653274 17.07148462 15.4086661 13.71972656 15.38818359 C7.14910516 15.34407014 0.57901174 15.27712186 -5.99121094 15.19287109 C-6.01806506 12.88043317 -6.03753935 10.56790839 -6.05371094 8.25537109 C-6.0653125 6.96759766 -6.07691406 5.67982422 -6.08886719 4.35302734 C-5.93473495 -0.6346918 -4.5299532 0.06184385 0 0 Z " fill="#D0D2D3" transform="translate(434.9912109375,114.80712890625)"/>
<path d="M0 0 C5.630625 -0.061875 5.630625 -0.061875 11.375 -0.125 C12.55755371 -0.14320801 13.74010742 -0.16141602 14.95849609 -0.18017578 C15.88742676 -0.1851709 16.81635742 -0.19016602 17.7734375 -0.1953125 C19.20308838 -0.21102295 19.20308838 -0.21102295 20.66162109 -0.22705078 C23 0 23 0 25 2 C25.25878906 4.67382812 25.25878906 4.67382812 25.265625 8.03125 C25.26949219 9.83529297 25.26949219 9.83529297 25.2734375 11.67578125 C25.26570313 12.93777344 25.25796875 14.19976562 25.25 15.5 C25.25773437 16.76199219 25.26546875 18.02398437 25.2734375 19.32421875 C25.27085937 20.52691406 25.26828125 21.72960937 25.265625 22.96875 C25.26336914 24.07669922 25.26111328 25.18464844 25.25878906 26.32617188 C25 29 25 29 23 31 C20.66162109 31.22705078 20.66162109 31.22705078 17.7734375 31.1953125 C16.84450684 31.19031738 15.91557617 31.18532227 14.95849609 31.18017578 C13.77594238 31.16196777 12.59338867 31.14375977 11.375 31.125 C7.62125 31.08375 3.8675 31.0425 0 31 C0 20.77 0 10.54 0 0 Z " fill="#57585A" transform="translate(405,369)"/>
<path d="M0 0 C5.630625 -0.061875 5.630625 -0.061875 11.375 -0.125 C12.55755371 -0.14320801 13.74010742 -0.16141602 14.95849609 -0.18017578 C15.88742676 -0.1851709 16.81635742 -0.19016602 17.7734375 -0.1953125 C19.20308838 -0.21102295 19.20308838 -0.21102295 20.66162109 -0.22705078 C23 0 23 0 25 2 C25.25878906 4.67382812 25.25878906 4.67382812 25.265625 8.03125 C25.26949219 9.83529297 25.26949219 9.83529297 25.2734375 11.67578125 C25.26570313 12.93777344 25.25796875 14.19976562 25.25 15.5 C25.25773437 16.76199219 25.26546875 18.02398437 25.2734375 19.32421875 C25.27085937 20.52691406 25.26828125 21.72960937 25.265625 22.96875 C25.26336914 24.07669922 25.26111328 25.18464844 25.25878906 26.32617188 C25 29 25 29 23 31 C20.66162109 31.22705078 20.66162109 31.22705078 17.7734375 31.1953125 C16.84450684 31.19031738 15.91557617 31.18532227 14.95849609 31.18017578 C13.77594238 31.16196777 12.59338867 31.14375977 11.375 31.125 C7.62125 31.08375 3.8675 31.0425 0 31 C0 20.77 0 10.54 0 0 Z " fill="#57585A" transform="translate(405,329)"/>
<path d="M0 0 C5.630625 -0.061875 5.630625 -0.061875 11.375 -0.125 C12.55755371 -0.14320801 13.74010742 -0.16141602 14.95849609 -0.18017578 C15.88742676 -0.1851709 16.81635742 -0.19016602 17.7734375 -0.1953125 C19.20308838 -0.21102295 19.20308838 -0.21102295 20.66162109 -0.22705078 C23 0 23 0 25 2 C25.25878906 4.67382812 25.25878906 4.67382812 25.265625 8.03125 C25.26949219 9.83529297 25.26949219 9.83529297 25.2734375 11.67578125 C25.26570313 12.93777344 25.25796875 14.19976562 25.25 15.5 C25.25773437 16.76199219 25.26546875 18.02398437 25.2734375 19.32421875 C25.27085937 20.52691406 25.26828125 21.72960937 25.265625 22.96875 C25.26336914 24.07669922 25.26111328 25.18464844 25.25878906 26.32617188 C25 29 25 29 23 31 C20.66162109 31.22705078 20.66162109 31.22705078 17.7734375 31.1953125 C16.84450684 31.19031738 15.91557617 31.18532227 14.95849609 31.18017578 C13.77594238 31.16196777 12.59338867 31.14375977 11.375 31.125 C7.62125 31.08375 3.8675 31.0425 0 31 C0 20.77 0 10.54 0 0 Z " fill="#57585A" transform="translate(405,227)"/>
<path d="M0 0 C5.630625 -0.061875 5.630625 -0.061875 11.375 -0.125 C12.55755371 -0.14320801 13.74010742 -0.16141602 14.95849609 -0.18017578 C15.88742676 -0.1851709 16.81635742 -0.19016602 17.7734375 -0.1953125 C19.20308838 -0.21102295 19.20308838 -0.21102295 20.66162109 -0.22705078 C23 0 23 0 25 2 C25.25878906 4.67382812 25.25878906 4.67382812 25.265625 8.03125 C25.26949219 9.83529297 25.26949219 9.83529297 25.2734375 11.67578125 C25.26570313 12.93777344 25.25796875 14.19976562 25.25 15.5 C25.25773437 16.76199219 25.26546875 18.02398437 25.2734375 19.32421875 C25.27085937 20.52691406 25.26828125 21.72960937 25.265625 22.96875 C25.26336914 24.07669922 25.26111328 25.18464844 25.25878906 26.32617188 C25 29 25 29 23 31 C20.66162109 31.22705078 20.66162109 31.22705078 17.7734375 31.1953125 C16.84450684 31.19031738 15.91557617 31.18532227 14.95849609 31.18017578 C13.77594238 31.16196777 12.59338867 31.14375977 11.375 31.125 C7.62125 31.08375 3.8675 31.0425 0 31 C0 20.77 0 10.54 0 0 Z " fill="#57585A" transform="translate(405,187)"/>
<path d="M0 0 C5.630625 -0.061875 5.630625 -0.061875 11.375 -0.125 C12.55755371 -0.14320801 13.74010742 -0.16141602 14.95849609 -0.18017578 C15.88742676 -0.1851709 16.81635742 -0.19016602 17.7734375 -0.1953125 C19.20308838 -0.21102295 19.20308838 -0.21102295 20.66162109 -0.22705078 C23 0 23 0 25 2 C25.25878906 4.67382812 25.25878906 4.67382812 25.265625 8.03125 C25.26949219 9.83529297 25.26949219 9.83529297 25.2734375 11.67578125 C25.26570313 12.93777344 25.25796875 14.19976562 25.25 15.5 C25.25773437 16.76199219 25.26546875 18.02398437 25.2734375 19.32421875 C25.27085937 20.52691406 25.26828125 21.72960937 25.265625 22.96875 C25.26336914 24.07669922 25.26111328 25.18464844 25.25878906 26.32617188 C25 29 25 29 23 31 C20.66162109 31.22705078 20.66162109 31.22705078 17.7734375 31.1953125 C16.84450684 31.19031738 15.91557617 31.18532227 14.95849609 31.18017578 C13.77594238 31.16196777 12.59338867 31.14375977 11.375 31.125 C7.62125 31.08375 3.8675 31.0425 0 31 C0 20.77 0 10.54 0 0 Z " fill="#57585A" transform="translate(405,147)"/>
<path d="M0 0 C5.630625 -0.061875 5.630625 -0.061875 11.375 -0.125 C12.55755371 -0.14320801 13.74010742 -0.16141602 14.95849609 -0.18017578 C15.88742676 -0.1851709 16.81635742 -0.19016602 17.7734375 -0.1953125 C19.20308838 -0.21102295 19.20308838 -0.21102295 20.66162109 -0.22705078 C23 0 23 0 25 2 C25.25878906 4.67382812 25.25878906 4.67382812 25.265625 8.03125 C25.26949219 9.83529297 25.26949219 9.83529297 25.2734375 11.67578125 C25.26570313 12.93777344 25.25796875 14.19976562 25.25 15.5 C25.25773437 16.76199219 25.26546875 18.02398437 25.2734375 19.32421875 C25.27085937 20.52691406 25.26828125 21.72960937 25.265625 22.96875 C25.26336914 24.07669922 25.26111328 25.18464844 25.25878906 26.32617188 C25 29 25 29 23 31 C20.66162109 31.22705078 20.66162109 31.22705078 17.7734375 31.1953125 C16.84450684 31.19031738 15.91557617 31.18532227 14.95849609 31.18017578 C13.77594238 31.16196777 12.59338867 31.14375977 11.375 31.125 C7.62125 31.08375 3.8675 31.0425 0 31 C0 20.77 0 10.54 0 0 Z " fill="#57585A" transform="translate(405,107)"/>
<path d="M0 0 C3.6578218 2.03993908 5.66946174 3.50419262 8 7 C8.46287185 11.99901603 8.10431905 15.00873265 5 19 C2.36525292 21.82991353 0.99789326 22.00023408 -2.9375 22.4375 C-7.04824304 22.27674469 -9.13888164 21.02941944 -12 18 C-14.28582634 14.73453379 -14.40058025 11.92568648 -14 8 C-11.24745384 1.77055343 -6.79684835 -0.97097834 0 0 Z " fill="#CED0D1" transform="translate(307,29)"/>
<path d="M0 0 C3.6578218 2.03993908 5.66946174 3.50419262 8 7 C8.46287185 11.99901603 8.10431905 15.00873265 5 19 C2.36525292 21.82991353 0.99789326 22.00023408 -2.9375 22.4375 C-7.04824304 22.27674469 -9.13888164 21.02941944 -12 18 C-14.28582634 14.73453379 -14.40058025 11.92568648 -14 8 C-11.24745384 1.77055343 -6.79684835 -0.97097834 0 0 Z " fill="#CED0D1" transform="translate(127,29)"/>
<path d="M0 0 C3.02508145 1.73602105 5.41790069 3.83580137 7 7 C7.54724071 12.69130337 6.59333707 15.56117185 3 20 C-0.71453232 21.85726616 -4.95579425 21.58501089 -9 21 C-11.82424288 18.80977082 -13.41508603 17.16982793 -15 14 C-15.67660495 8.13609041 -15.67660495 8.13609041 -13.953125 5.2421875 C-9.88463507 0.2882027 -6.3581058 -1.08524255 0 0 Z " fill="#CFD1D2" transform="translate(308,461)"/>
<path d="M0 0 C3.02508145 1.73602105 5.41790069 3.83580137 7 7 C7.54724071 12.69130337 6.59333707 15.56117185 3 20 C-0.71453232 21.85726616 -4.95579425 21.58501089 -9 21 C-11.82424288 18.80977082 -13.41508603 17.16982793 -15 14 C-15.67660495 8.13609041 -15.67660495 8.13609041 -13.953125 5.2421875 C-9.88463507 0.2882027 -6.3581058 -1.08524255 0 0 Z " fill="#CFD1D2" transform="translate(128,461)"/>
<path d="M0 0 C2.5 0.125 2.5 0.125 3.5 1.125 C3.625 4.625 3.625 4.625 3.5 8.125 C2.5 9.125 2.5 9.125 0 9.25 C-2.5 9.125 -2.5 9.125 -3.5 8.125 C-3.625 4.625 -3.625 4.625 -3.5 1.125 C-2.5 0.125 -2.5 0.125 0 0 Z " fill="#5D9BF7" transform="translate(35.5,111.875)"/>
</svg>
