<?xml version="1.0" encoding="UTF-8"?>
<svg version="1.1" xmlns="http://www.w3.org/2000/svg" width="512" height="512">
<path d="M0 0 C1.10900665 -0.01052147 1.10900665 -0.01052147 2.24041748 -0.02125549 C4.61086189 -0.03865277 6.98105661 -0.04510691 9.3515625 -0.046875 C10.56558746 -0.04788712 10.56558746 -0.04788712 11.80413818 -0.04891968 C23.47940626 -0.03342832 34.60234579 0.35382627 45.9765625 3.203125 C46.69295898 3.36941406 47.40935547 3.53570312 48.14746094 3.70703125 C60.07314092 6.49123669 70.98511076 10.85065565 81.9765625 16.203125 C82.63253418 16.51620605 83.28850586 16.82928711 83.96435547 17.15185547 C99.47672894 24.62517184 112.67430144 35.25085715 124.9765625 47.203125 C125.52908691 47.73373535 126.08161133 48.2643457 126.65087891 48.81103516 C148.86642089 70.48875935 162.35449674 99.20359385 168.9765625 129.203125 C169.32847656 130.78673828 169.32847656 130.78673828 169.6875 132.40234375 C177.63991053 175.56434002 166.55801458 219.33734708 142.28417969 255.34082031 C138.56629461 260.63582168 134.37901984 265.47058651 129.9765625 270.203125 C129.41308105 270.81043457 128.84959961 271.41774414 128.26904297 272.04345703 C118.67018279 282.26849999 108.42214001 290.86618488 96.578125 298.375 C88.25366584 303.6779888 82.62684806 308.45569352 79.9765625 318.203125 C79.65074294 321.67761708 79.60476355 325.14468823 79.5625 328.6328125 C79.54313385 329.62314484 79.5237677 330.61347717 79.5038147 331.63381958 C79.44426697 334.7818351 79.3977328 337.92988768 79.3515625 341.078125 C79.3133599 343.21876552 79.27430685 345.35939104 79.234375 347.5 C79.13858598 352.7342414 79.05346655 357.9685739 78.9765625 363.203125 C79.60175781 363.50347656 80.22695313 363.80382812 80.87109375 364.11328125 C84.36006706 365.91926187 85.73022111 367.46410083 86.9765625 371.203125 C87.25431359 374.46909468 87.2539321 377.73912975 87.2890625 381.015625 C87.31806641 381.90572266 87.34707031 382.79582031 87.37695312 383.71289062 C87.44461709 390.73432786 86.02741022 393.93435958 81.2265625 399.078125 C80.8140625 399.449375 80.4015625 399.820625 79.9765625 400.203125 C80.7603125 400.780625 81.5440625 401.358125 82.3515625 401.953125 C85.42945201 404.591316 86.75413493 406.45248919 87.26708984 410.48974609 C87.31633127 413.18637607 87.34786782 415.88101202 87.3515625 418.578125 C87.37605469 419.51140625 87.40054688 420.4446875 87.42578125 421.40625 C87.45100679 427.34266153 86.9032044 430.67738148 82.9765625 435.203125 C79.43986085 437.90218678 76.36769537 438.69252815 71.9765625 439.203125 C72.935625 440.3478125 72.935625 440.3478125 73.9140625 441.515625 C77.50530812 446.19512687 77.19052185 450.37976791 77.2265625 456.015625 C77.2471875 456.81033203 77.2678125 457.60503906 77.2890625 458.42382812 C77.32229872 463.44665142 76.75467994 466.85074101 73.9765625 471.203125 C69.54276622 475.30438656 66.38392381 476.33226448 60.43359375 476.30078125 C59.36044922 476.29755859 58.28730469 476.29433594 57.18164062 476.29101562 C56.06208984 476.28263672 54.94253906 476.27425781 53.7890625 476.265625 C52.65791016 476.26111328 51.52675781 476.25660156 50.36132812 476.25195312 C47.56635323 476.24015998 44.7714843 476.2237015 41.9765625 476.203125 C41.98961426 476.79407959 42.00266602 477.38503418 42.01611328 477.99389648 C42.15983273 489.17321649 39.09347801 496.87082514 31.3125 504.92578125 C23.7301566 511.97147478 15.81567125 512.91051944 5.82421875 512.546875 C-2.93638664 511.76420163 -9.09825791 507.55522801 -15.0234375 501.203125 C-20.04079571 494.84865356 -22.14796339 488.5085466 -22.06640625 480.44921875 C-22.06020264 479.65056396 -22.05399902 478.85190918 -22.04760742 478.02905273 C-22.03963135 477.42649658 -22.03165527 476.82394043 -22.0234375 476.203125 C-22.71904785 476.21883545 -23.4146582 476.2345459 -24.13134766 476.25073242 C-27.30362721 476.31335363 -30.47577635 476.35220177 -33.6484375 476.390625 C-35.29005859 476.42833008 -35.29005859 476.42833008 -36.96484375 476.46679688 C-47.18391371 476.55969751 -47.18391371 476.55969751 -52.0234375 473.203125 C-56.9306238 467.89805873 -57.25162215 463.44567788 -57.3359375 456.453125 C-57.37944336 455.27363281 -57.37944336 455.27363281 -57.42382812 454.0703125 C-57.48646793 448.2689031 -56.30382505 444.99512517 -53.0234375 440.203125 C-52.6934375 439.873125 -52.3634375 439.543125 -52.0234375 439.203125 C-53.84875 438.831875 -53.84875 438.831875 -55.7109375 438.453125 C-60.27498969 437.30605348 -63.6252679 435.51007414 -66.13525391 431.36865234 C-67.78135265 427.35521204 -67.39257158 423.11024307 -67.3984375 418.828125 C-67.42292969 417.89484375 -67.44742188 416.9615625 -67.47265625 416 C-67.4971889 410.22664863 -66.99257323 406.7167631 -63.0234375 402.203125 C-62.0334375 401.543125 -61.0434375 400.883125 -60.0234375 400.203125 C-60.44496094 399.72101563 -60.86648437 399.23890625 -61.30078125 398.7421875 C-61.84863281 398.11054688 -62.39648438 397.47890625 -62.9609375 396.828125 C-63.50621094 396.20164062 -64.05148438 395.57515625 -64.61328125 394.9296875 C-67.95882629 390.83348 -67.24484444 386.46231935 -67.2734375 381.390625 C-67.2940625 380.48763672 -67.3146875 379.58464844 -67.3359375 378.65429688 C-67.37205041 372.51058823 -66.53925646 369.12147499 -62.4609375 364.390625 C-61.0234375 363.203125 -61.0234375 363.203125 -59.0234375 363.203125 C-59.067781 356.95871863 -59.13781511 350.71530507 -59.23095703 344.47143555 C-59.25906276 342.35042247 -59.28032866 340.22930668 -59.29443359 338.1081543 C-59.31600739 335.04683234 -59.3627317 331.98673192 -59.4140625 328.92578125 C-59.41529114 327.98791275 -59.41651978 327.05004425 -59.41778564 326.08375549 C-59.61767711 316.95770958 -62.51948702 309.734403 -69.0234375 303.203125 C-71.80176483 301.10550921 -74.70427794 299.24551295 -77.6484375 297.390625 C-112.98243881 274.38079564 -138.46179855 239.50604046 -148.0234375 198.203125 C-149.27963835 192.23904631 -150.22063946 186.24329481 -151.0234375 180.203125 C-151.1678125 179.16542969 -151.3121875 178.12773437 -151.4609375 177.05859375 C-155.50354491 139.31074704 -145.10482837 97.58090596 -122.0234375 67.203125 C-121.37890625 66.35105469 -120.734375 65.49898438 -120.0703125 64.62109375 C-115.34137445 58.56097826 -110.25221764 52.834119 -105.0234375 47.203125 C-104.48460937 46.61015625 -103.94578125 46.0171875 -103.390625 45.40625 C-77.88095923 18.4865022 -37.0460339 0.23633618 0 0 Z " fill="#FEE081" transform="translate(246.0234375,-0.203125)"/>
<path d="M0 0 C0.78773804 0.00141495 1.57547607 0.0028299 2.38708496 0.00428772 C4.87268064 0.00983013 7.35818211 0.0223714 9.84375 0.03515625 C11.54166535 0.04017871 13.23958214 0.0447403 14.9375 0.04882812 C19.07295229 0.05978061 23.20833524 0.07700459 27.34375 0.09765625 C27.67375 0.75765625 28.00375 1.41765625 28.34375 2.09765625 C27.7768042 2.21246338 27.2098584 2.32727051 26.62573242 2.44555664 C-6.47862774 9.26360929 -35.22948385 22.50399945 -59.65625 46.09765625 C-60.57019531 46.9484375 -61.48414063 47.79921875 -62.42578125 48.67578125 C-84.043367 69.33464717 -97.85643135 96.86902842 -104.84375 125.72265625 C-105.01084473 126.40303955 -105.17793945 127.08342285 -105.35009766 127.78442383 C-107.71374176 137.95344881 -107.84269327 148.16298426 -107.84155273 158.55444336 C-107.84372887 160.76370838 -107.86191866 162.97246407 -107.88085938 165.18164062 C-108.04777294 206.94615304 -90.05824778 245.88028642 -61.19580078 275.6015625 C-51.09096509 285.64822609 -39.40735825 294.24811824 -27.0234375 301.26953125 C-23.77169842 303.78077529 -21.93078946 306.68179984 -19.65625 310.09765625 C-19.47976781 306.61914694 -19.37468729 303.14180776 -19.28125 299.66015625 C-19.23097656 298.68626953 -19.18070313 297.71238281 -19.12890625 296.70898438 C-18.97583842 289.08110433 -20.88264166 284.94463263 -25.65625 279.09765625 C-26.61962497 277.84071315 -27.58191599 276.5829383 -28.54296875 275.32421875 C-29.93918172 273.5221525 -31.33959478 271.72778083 -32.77539062 269.95703125 C-39.85343199 260.70494914 -40.08797232 250.15056221 -39.94921875 238.8984375 C-39.94497391 237.58223923 -39.94072906 236.26604095 -39.93635559 234.90995789 C-39.9250259 231.44933247 -39.89566508 227.98909861 -39.86224365 224.52862549 C-39.83128284 220.98202813 -39.81779531 217.43536608 -39.80273438 213.88867188 C-39.77078071 206.95817481 -39.71973281 200.02793445 -39.65625 193.09765625 C-40.831875 192.91203125 -40.831875 192.91203125 -42.03125 192.72265625 C-44.65625 192.09765625 -44.65625 192.09765625 -46.65625 190.09765625 C-47.33927257 183.03975635 -47.33927257 183.03975635 -44.84375 179.59765625 C-42.65625 178.09765625 -42.65625 178.09765625 -39.65625 178.09765625 C-39.553125 177.33453125 -39.45 176.57140625 -39.34375 175.78515625 C-38.30393683 171.72043205 -38.30393683 171.72043205 -35.65625 170.09765625 C-30.58975549 169.45429187 -30.58975549 169.45429187 -27.65625 170.09765625 C-25.15625 172.41015625 -25.15625 172.41015625 -23.65625 175.09765625 C-23.65625 176.08765625 -23.65625 177.07765625 -23.65625 178.09765625 C-1.87625 178.09765625 19.90375 178.09765625 42.34375 178.09765625 C42.67375 176.44765625 43.00375 174.79765625 43.34375 173.09765625 C44.40625 171.28515625 44.40625 171.28515625 46.34375 170.09765625 C53.24785959 169.33053296 53.24785959 169.33053296 56.84375 171.84765625 C58.34375 174.09765625 58.34375 174.09765625 58.34375 178.09765625 C59.4884375 178.46890625 59.4884375 178.46890625 60.65625 178.84765625 C63.68793085 180.25774037 64.85188188 181.11392001 66.34375 184.09765625 C66.21284762 187.30476446 65.88089743 189.33030278 64.03125 191.97265625 C62.34375 193.09765625 62.34375 193.09765625 58.34375 193.09765625 C58.35485306 193.84774963 58.36595612 194.59784302 58.37739563 195.3706665 C58.47818021 202.48945627 58.55400734 209.60799299 58.60281086 216.72729874 C58.62874639 220.38622071 58.66384306 224.0445462 58.72094727 227.703125 C58.77585042 231.24342332 58.80529068 234.78315325 58.81813622 238.32384491 C58.83167614 240.31116003 58.87061351 242.298251 58.91023254 244.28521729 C58.913753 255.84791185 55.71446297 264.95673374 48.34375 273.84765625 C47.08282035 275.38441426 45.82230914 276.92205713 44.60075378 278.49029541 C43.77804886 279.5423079 42.92164896 280.56901083 42.03071594 281.56390381 C36.6929142 288.44003929 37.61207253 296.80202992 37.63671875 305.06640625 C37.62417576 306.52769009 37.60941235 307.98895659 37.59240723 309.45019531 C37.54518649 314.83251376 37.5407456 320.21513904 37.53125 325.59765625 C37.469375 337.64265625 37.4075 349.68765625 37.34375 362.09765625 C-10.67125 362.59265625 -10.67125 362.59265625 -59.65625 363.09765625 C-59.98625 348.24765625 -60.31625 333.39765625 -60.65625 318.09765625 C-65.30484014 307.63832845 -69.01504015 303.12308067 -78.28125 297.28515625 C-113.61525131 274.27532689 -139.09461105 239.40057171 -148.65625 198.09765625 C-149.91245085 192.13357756 -150.85345196 186.13782606 -151.65625 180.09765625 C-151.800625 179.05996094 -151.945 178.02226562 -152.09375 176.953125 C-156.13635741 139.20527829 -145.73764087 97.47543721 -122.65625 67.09765625 C-122.01171875 66.24558594 -121.3671875 65.39351563 -120.703125 64.515625 C-115.97418695 58.45550951 -110.88503014 52.72865025 -105.65625 47.09765625 C-105.11742187 46.5046875 -104.57859375 45.91171875 -104.0234375 45.30078125 C-78.44621509 18.30974253 -37.20063972 -0.25731965 0 0 Z " fill="#FEC458" transform="translate(246.65625,-0.09765625)"/>
<path d="M0 0 C1.1257695 -0.00426498 2.251539 -0.00852997 3.41142273 -0.01292419 C5.25756668 -0.01224442 5.25756668 -0.01224442 7.14100647 -0.0115509 C9.09030312 -0.01658882 9.09030312 -0.01658882 11.07897949 -0.02172852 C14.64095293 -0.03055745 18.20290234 -0.03290614 21.76488566 -0.0335443 C23.99081786 -0.03425534 26.21674396 -0.03639067 28.44267464 -0.03904152 C36.20963555 -0.04829072 43.9765793 -0.05237687 51.74354553 -0.05158997 C58.98149103 -0.05098903 66.21936204 -0.06154509 73.45728868 -0.07733363 C79.6739601 -0.09041084 85.89060717 -0.0957738 92.10729223 -0.09513456 C95.81916363 -0.09487966 99.53096878 -0.09772659 103.24282646 -0.10831261 C107.38211536 -0.11979565 111.52123731 -0.11524567 115.66053772 -0.10920715 C116.88927612 -0.11482666 118.11801453 -0.12044617 119.38398743 -0.12623596 C120.51257675 -0.12204147 121.64116608 -0.11784698 122.80395508 -0.11352539 C123.78231292 -0.11407016 124.76067076 -0.11461493 125.7686758 -0.1151762 C130.93070423 0.36123102 134.13279061 2.20591281 137.46546936 6.13371277 C138.88645822 10.39667933 138.73007998 14.47972976 138.77796936 18.94621277 C138.80697327 19.83631042 138.83597717 20.72640808 138.86585999 21.64347839 C138.93352395 28.66491563 137.51631708 31.86494735 132.71546936 37.00871277 C132.30296936 37.37996277 131.89046936 37.75121277 131.46546936 38.13371277 C132.64109436 38.99996277 132.64109436 38.99996277 133.84046936 39.88371277 C136.91835887 42.52190377 138.24304179 44.38307696 138.7559967 48.42033386 C138.80523813 51.11696384 138.83677469 53.81159979 138.84046936 56.50871277 C138.86496155 57.44199402 138.88945374 58.37527527 138.91468811 59.33683777 C138.93991366 65.2732493 138.39211126 68.60796925 134.46546936 73.13371277 C130.92876771 75.83277455 127.85660223 76.62311592 123.46546936 77.13371277 C124.42453186 78.27840027 124.42453186 78.27840027 125.40296936 79.44621277 C128.99421498 84.12571464 128.67942871 88.31035568 128.71546936 93.94621277 C128.74640686 95.13827332 128.74640686 95.13827332 128.77796936 96.35441589 C128.81120558 101.37723919 128.2435868 104.78132878 125.46546936 109.13371277 C121.03167308 113.23497432 117.87283067 114.26285225 111.92250061 114.23136902 C110.84935608 114.22814636 109.77621155 114.22492371 108.67054749 114.22160339 C107.5509967 114.21322449 106.43144592 114.20484558 105.27796936 114.19621277 C104.14681702 114.19170105 103.01566467 114.18718933 101.85023499 114.18254089 C99.05526009 114.17074775 96.26039116 114.15428927 93.46546936 114.13371277 C93.47852112 114.72466736 93.49157288 115.31562195 93.50502014 115.92448425 C93.64873959 127.10380426 90.58238487 134.80141291 82.80140686 142.85636902 C75.21906346 149.90206255 67.30457811 150.84110721 57.31312561 150.47746277 C48.55252022 149.69478939 42.39064895 145.48581578 36.46546936 139.13371277 C31.44811115 132.77924133 29.34094347 126.43913437 29.42250061 118.37980652 C29.43180603 117.18182434 29.43180603 117.18182434 29.44129944 115.9596405 C29.44927551 115.35708435 29.45725159 114.7545282 29.46546936 114.13371277 C28.76985901 114.14942322 28.07424866 114.16513367 27.3575592 114.18132019 C24.18527965 114.2439414 21.01313051 114.28278954 17.84046936 114.32121277 C16.7460553 114.34634949 15.65164124 114.37148621 14.52406311 114.39738464 C4.30499315 114.49028528 4.30499315 114.49028528 -0.53453064 111.13371277 C-5.44171694 105.82864649 -5.76271529 101.37626565 -5.84703064 94.38371277 C-5.87603455 93.59738464 -5.90503845 92.81105652 -5.93492126 92.00090027 C-5.99756107 86.19949087 -4.81491819 82.92571294 -1.53453064 78.13371277 C-1.03953064 77.63871277 -1.03953064 77.63871277 -0.53453064 77.13371277 C-2.35984314 76.76246277 -2.35984314 76.76246277 -4.22203064 76.38371277 C-8.78608283 75.23664124 -12.13636104 73.44066191 -14.64634705 69.29924011 C-16.29244579 65.28579981 -15.90366472 61.04083084 -15.90953064 56.75871277 C-15.93402283 55.82543152 -15.95851501 54.89215027 -15.98374939 53.93058777 C-16.00828204 48.1572364 -15.50366637 44.64735087 -11.53453064 40.13371277 C-10.54453064 39.47371277 -9.55453064 38.81371277 -8.53453064 38.13371277 C-8.95605408 37.65160339 -9.37757751 37.16949402 -9.81187439 36.67277527 C-10.35972595 36.04113464 -10.90757751 35.40949402 -11.47203064 34.75871277 C-12.01730408 34.13222839 -12.56257751 33.50574402 -13.12437439 32.86027527 C-16.46991943 28.76406777 -15.75593758 24.39290712 -15.78453064 19.32121277 C-15.80515564 18.41822449 -15.82578064 17.51523621 -15.84703064 16.58488464 C-15.88292749 10.47793298 -15.02315381 7.16334097 -11.09703064 2.38371277 C-7.84535128 -0.21763072 -4.01290484 0.00687642 0 0 Z " fill="#E2DFE2" transform="translate(194.53453063964844,361.8662872314453)"/>
<path d="M0 0 C1.1257695 -0.00426498 2.251539 -0.00852997 3.41142273 -0.01292419 C5.25756668 -0.01224442 5.25756668 -0.01224442 7.14100647 -0.0115509 C9.09030312 -0.01658882 9.09030312 -0.01658882 11.07897949 -0.02172852 C14.64095293 -0.03055745 18.20290234 -0.03290614 21.76488566 -0.0335443 C23.99081786 -0.03425534 26.21674396 -0.03639067 28.44267464 -0.03904152 C36.20963555 -0.04829072 43.9765793 -0.05237687 51.74354553 -0.05158997 C58.98149103 -0.05098903 66.21936204 -0.06154509 73.45728868 -0.07733363 C79.6739601 -0.09041084 85.89060717 -0.0957738 92.10729223 -0.09513456 C95.81916363 -0.09487966 99.53096878 -0.09772659 103.24282646 -0.10831261 C107.38211536 -0.11979565 111.52123731 -0.11524567 115.66053772 -0.10920715 C116.88927612 -0.11482666 118.11801453 -0.12044617 119.38398743 -0.12623596 C120.51257675 -0.12204147 121.64116608 -0.11784698 122.80395508 -0.11352539 C123.78231292 -0.11407016 124.76067076 -0.11461493 125.7686758 -0.1151762 C130.93070423 0.36123102 134.13279061 2.20591281 137.46546936 6.13371277 C138.88645822 10.39667933 138.73007998 14.47972976 138.77796936 18.94621277 C138.80697327 19.83631042 138.83597717 20.72640808 138.86585999 21.64347839 C138.93352395 28.66491563 137.51631708 31.86494735 132.71546936 37.00871277 C132.30296936 37.37996277 131.89046936 37.75121277 131.46546936 38.13371277 C132.24921936 38.69058777 133.03296936 39.24746277 133.84046936 39.82121277 C136.63403458 42.2822107 137.85401299 43.46497453 138.46546936 47.13371277 C136.25434173 51.55596803 133.89084424 53.9777609 129.46546936 56.13371277 C126.42446497 57.1473809 124.36114794 57.2666299 121.17854309 57.28088379 C119.53415001 57.29161674 119.53415001 57.29161674 117.85653687 57.30256653 C116.05179146 57.30659988 116.05179146 57.30659988 114.21058655 57.31071472 C112.31021889 57.32057152 112.31021889 57.32057152 110.37145996 57.33062744 C106.16843427 57.35165003 101.9654083 57.36202862 97.76234436 57.37199402 C96.31408418 57.37604235 94.86582419 57.38015929 93.41756439 57.3843441 C86.61254978 57.40339238 79.80754598 57.41762377 73.00250983 57.42595607 C65.15395228 57.43572538 57.305677 57.46203816 49.45721889 57.50245696 C43.3866085 57.53264435 37.31607891 57.54742745 31.24539495 57.55073708 C27.62165247 57.55308474 23.99821165 57.56200751 20.37454987 57.58719826 C16.32883012 57.61486885 12.28373873 57.6106399 8.2379303 57.60368347 C7.04286362 57.61649353 5.84779694 57.62930359 4.61651611 57.64250183 C-2.04158166 57.60075837 -6.09244296 57.04024164 -11.53453064 53.13371277 C-12.8609922 52.45347607 -14.19061941 51.77879016 -15.53453064 51.13371277 C-15.18887473 45.25756223 -13.87421004 43.02829684 -9.53453064 39.13371277 C-9.53453064 35.68689966 -12.37808405 33.65833316 -14.53453064 31.13371277 C-16.34192421 27.51892563 -15.76209132 23.30138731 -15.78453064 19.32121277 C-15.80515564 18.41822449 -15.82578064 17.51523621 -15.84703064 16.58488464 C-15.88292749 10.47793298 -15.02315381 7.16334097 -11.09703064 2.38371277 C-7.84535128 -0.21763072 -4.01290484 0.00687642 0 0 Z " fill="#E2DFE2" transform="translate(194.53453063964844,361.8662872314453)"/>
<path d="M0 0 C2.5 2.3125 2.5 2.3125 4 5 C4 5.99 4 6.98 4 8 C25.78 8 47.56 8 70 8 C70.33 6.35 70.66 4.7 71 3 C72.0625 1.1875 72.0625 1.1875 74 0 C80.90410959 -0.76712329 80.90410959 -0.76712329 84.5 1.75 C86 4 86 4 86 8 C86.763125 8.2475 87.52625 8.495 88.3125 8.75 C91.34418085 10.16008412 92.50813188 11.01626376 94 14 C93.86909762 17.20710821 93.53714743 19.23264653 91.6875 21.875 C90 23 90 23 86 23 C86.01110306 23.75009338 86.02220612 24.50018677 86.03364563 25.27301025 C86.13443021 32.39180002 86.21025734 39.51033674 86.25906086 46.62964249 C86.28499639 50.28856446 86.32009306 53.94688995 86.37719727 57.60546875 C86.43210042 61.14576707 86.46154068 64.685497 86.47438622 68.22618866 C86.48792614 70.21350378 86.52686351 72.20059475 86.56648254 74.18756104 C86.570003 85.7502556 83.37071297 94.85907749 76 103.75 C74.73907035 105.28675801 73.47855914 106.82440088 72.25700378 108.39263916 C71.43429886 109.44465165 70.57789896 110.47135458 69.68696594 111.46624756 C64.34900746 118.34258494 65.26968177 126.70494252 65.29296875 134.96875 C65.27983898 136.61643287 65.26453084 138.26409969 65.24714661 139.91174316 C65.20743275 144.22555092 65.19711502 148.53893631 65.19311523 152.85290527 C65.18375796 157.26404523 65.14632831 161.67493967 65.11132812 166.0859375 C65.04689077 174.72400508 65.01613511 183.36170702 65 192 C59.72 192 54.44 192 49 192 C48.90928524 182.54159101 48.83604681 173.08347548 48.79275131 163.6247282 C48.7719616 159.23166809 48.74380359 154.8389235 48.69824219 150.44604492 C48.65447419 146.19903822 48.63079826 141.95233318 48.62049103 137.70511818 C48.61315475 136.09254019 48.59883008 134.47997691 48.57707977 132.86752892 C48.43239663 121.68710917 48.93398972 111.17018356 56.3828125 102.12890625 C56.99253906 101.37029297 57.60226562 100.61167969 58.23046875 99.83007812 C58.85566406 99.08177734 59.48085938 98.33347656 60.125 97.5625 C61.38047736 96.02447631 62.63319416 94.48419407 63.8828125 92.94140625 C64.43340332 92.27826416 64.98399414 91.61512207 65.55126953 90.93188477 C68.56526225 86.91271988 69.25635805 83.9871173 69.31884766 78.94628906 C69.33890869 77.70830566 69.35896973 76.47032227 69.37963867 75.19482422 C69.39099854 73.89818848 69.4023584 72.60155273 69.4140625 71.265625 C69.43170654 70.07050293 69.44935059 68.87538086 69.4675293 67.64404297 C69.53059742 63.17949887 69.5767833 58.71472919 69.625 54.25 C69.74875 44.2675 69.8725 34.285 70 24 C48.22 24 26.44 24 4 24 C4.04125 33.879375 4.0825 43.75875 4.125 53.9375 C4.12258301 57.04019287 4.12016602 60.14288574 4.11767578 63.33959961 C4.14121492 65.81887098 4.16694786 68.2981229 4.1953125 70.77734375 C4.1862085 72.04839966 4.17710449 73.31945557 4.16772461 74.62902832 C4.2976028 82.83781102 5.65441412 87.74261727 11 94 C11.89256488 95.15635901 12.78248112 96.31477514 13.66796875 97.4765625 C14.92740374 99.06007399 16.19582019 100.63520138 17.47460938 102.203125 C22.49102315 108.53800523 24.46485423 113.85684985 24.34057617 121.86303711 C24.34123329 122.99110779 24.34123329 122.99110779 24.34190369 124.14196777 C24.33982964 126.60403278 24.31656524 129.06539913 24.29296875 131.52734375 C24.28736785 133.24369434 24.28310008 134.96004975 24.28010559 136.67640686 C24.2686957 141.17605011 24.23926206 145.67539911 24.20599365 150.17492676 C24.1752093 154.7734784 24.16158243 159.37207796 24.14648438 163.97070312 C24.1143883 172.98061829 24.06165223 181.99023855 24 191 C19.05 191 14.1 191 9 191 C9.00112793 188.83574463 9.00225586 186.67148926 9.00341797 184.44165039 C9.00278847 177.2649854 8.96921247 170.08874121 8.9197216 162.91225529 C8.89073498 158.56399889 8.87260754 154.21627884 8.87988281 149.86791992 C8.88650392 145.66591519 8.86383504 141.46496767 8.82144547 137.26318169 C8.81036335 135.66578374 8.80956972 134.06827793 8.81957626 132.47087288 C8.87031912 123.17353983 8.49770161 116.23966662 2 109 C1.03050784 107.74776909 0.06719275 106.49070259 -0.88671875 105.2265625 C-2.28293172 103.42449625 -3.68334478 101.63012458 -5.11914062 99.859375 C-12.19718199 90.60729289 -12.43172232 80.05290596 -12.29296875 68.80078125 C-12.28872391 67.48458298 -12.28447906 66.1683847 -12.28010559 64.81230164 C-12.2687759 61.35167622 -12.23941508 57.89144236 -12.20599365 54.43096924 C-12.17503284 50.88437188 -12.16154531 47.33770983 -12.14648438 43.79101562 C-12.11453071 36.86051856 -12.06348281 29.9302782 -12 23 C-12.78375 22.87625 -13.5675 22.7525 -14.375 22.625 C-17 22 -17 22 -19 20 C-19.68302257 12.9421001 -19.68302257 12.9421001 -17.1875 9.5 C-15 8 -15 8 -12 8 C-11.896875 7.236875 -11.79375 6.47375 -11.6875 5.6875 C-10.12597008 -0.41666243 -5.90827793 -1.29577927 0 0 Z " fill="#FEB641" transform="translate(219,170)"/>
<path d="M0 0 C21.78 0 43.56 0 66 0 C66.12375 9.879375 66.2475 19.75875 66.375 29.9375 C66.45693604 34.59153931 66.45693604 34.59153931 66.54052734 39.33959961 C66.55806293 41.81883185 66.57334943 44.29808145 66.5859375 46.77734375 C66.6166333 48.04839966 66.6473291 49.31945557 66.67895508 50.62902832 C66.68378084 58.86419724 65.40020131 63.74393519 60 70 C59.12190376 71.11159064 58.24426938 72.22354633 57.3671875 73.3359375 C55.70618221 75.36142671 54.03950552 77.38227839 52.3671875 79.3984375 C45.46235272 89.10808351 45.39663174 99.83757874 45.390625 111.26171875 C45.37561561 112.90511176 45.35888276 114.54848985 45.34051514 116.19184875 C45.29713839 120.48087319 45.27690908 124.76969427 45.26177979 129.05889893 C45.24210068 133.45019408 45.20014345 137.841273 45.16015625 142.23242188 C45.08517608 150.82158402 45.03675428 159.41058915 45 168 C37.08 168 29.16 168 21 168 C20.9906543 165.81592529 20.98130859 163.63185059 20.97167969 161.3815918 C20.93776621 154.1291355 20.88213839 146.87695945 20.81609726 139.6247282 C20.77675006 135.23181957 20.74449954 130.83910757 20.72900391 126.44604492 C20.71375258 122.19880824 20.67915912 117.9521126 20.63169098 113.70511818 C20.61696391 112.09263653 20.60896402 110.48007759 20.60811615 108.86752892 C20.59505284 96.46948436 19.26980736 86.19444065 11.125 76.375 C9.85849263 74.83057565 8.5927936 73.28518207 7.35614014 71.7167511 C6.41449476 70.52471298 5.44360871 69.35542774 4.45098877 68.20549011 C-0.88242022 61.36503073 -0.78963457 55.21205989 -0.5859375 46.77734375 C-0.57989502 45.58725708 -0.57385254 44.39717041 -0.56762695 43.17102051 C-0.53642423 38.75949006 -0.45265649 34.34845726 -0.375 29.9375 C-0.25125 20.058125 -0.1275 10.17875 0 0 Z " fill="#FEE081" transform="translate(223,194)"/>
<path d="M0 0 C0.66 0 1.32 0 2 0 C2.45375 0.763125 2.9075 1.52625 3.375 2.3125 C5.07129091 5.11790419 6.23934252 6.29806133 9 8 C11.30745223 8.44630249 11.30745223 8.44630249 13.81321716 8.38095093 C14.77911774 8.3894104 15.74501831 8.39786987 16.7401886 8.40658569 C18.3198365 8.39747665 18.3198365 8.39747665 19.93139648 8.38818359 C21.60271637 8.39606903 21.60271637 8.39606903 23.30780029 8.40411377 C26.99570685 8.41733133 30.6831827 8.40856851 34.37109375 8.3984375 C36.93172794 8.40045786 39.49236156 8.40336899 42.05299377 8.40713501 C47.42219038 8.41156088 52.79123235 8.40540508 58.16040039 8.39111328 C64.36231593 8.37479518 70.56393547 8.38006943 76.76584381 8.3965925 C82.7373999 8.41186348 88.70886426 8.41022562 94.68043709 8.4014473 C97.21898503 8.39944489 99.7575405 8.40190598 102.29607964 8.40888596 C105.84399327 8.41649936 109.39133776 8.40489648 112.93920898 8.38818359 C113.99028336 8.39425629 115.04135773 8.40032898 116.12428284 8.40658569 C123.07858299 8.4021374 123.07858299 8.4021374 129 5 C130.03357147 3.35394174 131.04060332 1.69036558 132 0 C132.66 0 133.32 0 134 0 C134.08138426 2.87557703 134.14067851 5.74882262 134.1875 8.625 C134.21263672 9.43324219 134.23777344 10.24148438 134.26367188 11.07421875 C134.32570709 16.16110621 133.83194855 19.59399929 131 24 C126.56620372 28.10126156 123.40736131 29.12913948 117.45703125 29.09765625 C116.38388672 29.09443359 115.31074219 29.09121094 114.20507812 29.08789062 C113.08552734 29.07951172 111.96597656 29.07113281 110.8125 29.0625 C109.68134766 29.05798828 108.55019531 29.05347656 107.38476562 29.04882812 C104.58979073 29.03703498 101.7949218 29.0205765 99 29 C99.01305176 29.59095459 99.02610352 30.18190918 99.03955078 30.79077148 C99.18327023 41.97009149 96.11691551 49.66770014 88.3359375 57.72265625 C80.7535941 64.76834978 72.83910875 65.70739444 62.84765625 65.34375 C54.08705086 64.56107663 47.92517959 60.35210301 42 54 C36.98264179 47.64552856 34.87547411 41.3054216 34.95703125 33.24609375 C34.96633667 32.04811157 34.96633667 32.04811157 34.97583008 30.82592773 C34.98380615 30.22337158 34.99178223 29.62081543 35 29 C34.30438965 29.01571045 33.6087793 29.0314209 32.89208984 29.04760742 C29.71981029 29.11022863 26.54766115 29.14907677 23.375 29.1875 C22.28058594 29.21263672 21.18617188 29.23777344 20.05859375 29.26367188 C9.83952379 29.35657251 9.83952379 29.35657251 5 26 C1.36664809 22.07205199 -0.13546332 19.10032819 -0.09765625 13.76953125 C-0.09282227 12.56586914 -0.09282227 12.56586914 -0.08789062 11.33789062 C-0.07951172 10.50451172 -0.07113281 9.67113281 -0.0625 8.8125 C-0.05798828 7.96751953 -0.05347656 7.12253906 -0.04882812 6.25195312 C-0.03705403 4.16793845 -0.0191189 2.08396023 0 0 Z " fill="#E1DEE2" transform="translate(189,447)"/>
<path d="M0 0 C1.15523163 -0.00997513 2.31046326 -0.01995026 3.5007019 -0.03022766 C4.774487 -0.03089233 6.04827209 -0.03155701 7.36065674 -0.03224182 C8.71080994 -0.0398604 10.06095879 -0.04828737 11.41110229 -0.0574646 C15.08483159 -0.07945132 18.75847762 -0.0882145 22.43226528 -0.09329104 C24.72755106 -0.09693088 27.02281491 -0.10316909 29.31809235 -0.11029243 C37.32610535 -0.13480517 45.33405345 -0.14784195 53.34210205 -0.15138245 C60.8050768 -0.1550152 68.26763964 -0.1848868 75.73048854 -0.22678703 C82.13737801 -0.2614965 88.54413109 -0.27693103 94.95111394 -0.27762848 C98.77776964 -0.27842134 102.60400635 -0.28716246 106.43056488 -0.31562614 C110.03241245 -0.34181734 113.63349414 -0.34400704 117.23539352 -0.3279705 C119.18327393 -0.3252933 121.13113947 -0.3473347 123.07888794 -0.37016296 C132.6303719 -0.29021749 132.6303719 -0.29021749 136.29162598 2.65927124 C140.08640253 7.03208293 140.08640253 7.03208293 140.56085205 10.27415466 C138.34972442 14.69640993 135.98622693 17.1182028 131.56085205 19.27415466 C128.51984766 20.28782279 126.45653063 20.4070718 123.27392578 20.42132568 C121.6295327 20.43205864 121.6295327 20.43205864 119.95191956 20.44300842 C118.14717415 20.44704178 118.14717415 20.44704178 116.30596924 20.45115662 C114.40560158 20.46101341 114.40560158 20.46101341 112.46684265 20.47106934 C108.26381696 20.49209192 104.06079099 20.50247052 99.85772705 20.51243591 C98.40946687 20.51648424 96.96120688 20.52060119 95.51294708 20.524786 C88.70793247 20.54383428 81.90292867 20.55806566 75.09789252 20.56639796 C67.24933498 20.57616728 59.40105969 20.60248005 51.55260158 20.64289886 C45.48199119 20.67308624 39.4114616 20.68786934 33.34077764 20.69117898 C29.71703516 20.69352664 26.09359434 20.7024494 22.46993256 20.72764015 C18.42421281 20.75531075 14.37912142 20.75108179 10.33331299 20.74412537 C9.13824631 20.75693542 7.94317963 20.76974548 6.7118988 20.78294373 C0.05380103 20.74120026 -3.99706027 20.18068354 -9.43914795 16.27415466 C-10.76560951 15.59391797 -12.09523672 14.91923205 -13.43914795 14.27415466 C-13.18388531 9.93468975 -12.8942504 7.79927287 -10.00164795 4.46165466 C-9.15602295 3.73977966 -8.31039795 3.01790466 -7.43914795 2.27415466 C-4.81295625 -0.35203704 -3.66369947 0.01690245 0 0 Z " fill="#EEEBEE" transform="translate(192.43914794921875,398.72584533691406)"/>
<path d="M0 0 C1.1257695 -0.00426498 2.251539 -0.00852997 3.41142273 -0.01292419 C5.25756668 -0.01224442 5.25756668 -0.01224442 7.14100647 -0.0115509 C9.09030312 -0.01658882 9.09030312 -0.01658882 11.07897949 -0.02172852 C14.64095293 -0.03055745 18.20290234 -0.03290614 21.76488566 -0.0335443 C23.99081786 -0.03425534 26.21674396 -0.03639067 28.44267464 -0.03904152 C36.20963555 -0.04829072 43.9765793 -0.05237687 51.74354553 -0.05158997 C58.98149103 -0.05098903 66.21936204 -0.06154509 73.45728868 -0.07733363 C79.6739601 -0.09041084 85.89060717 -0.0957738 92.10729223 -0.09513456 C95.81916363 -0.09487966 99.53096878 -0.09772659 103.24282646 -0.10831261 C107.38211536 -0.11979565 111.52123731 -0.11524567 115.66053772 -0.10920715 C116.88927612 -0.11482666 118.11801453 -0.12044617 119.38398743 -0.12623596 C120.51257675 -0.12204147 121.64116608 -0.11784698 122.80395508 -0.11352539 C123.78231292 -0.11407016 124.76067076 -0.11461493 125.7686758 -0.1151762 C129.75772164 0.25297564 132.59522265 1.51537958 135.84046936 3.82121277 C137.46546936 6.13371277 137.46546936 6.13371277 137.59046936 9.57121277 C136.10555988 14.27342613 134.50028119 15.39004073 130.46546936 18.13371277 C127.40978364 19.15227467 125.33305139 19.26427099 122.1338501 19.27415466 C121.02772873 19.27986481 119.92160736 19.28557495 118.78196716 19.29145813 C117.56788177 19.29257599 116.35379639 19.29369385 115.10292053 19.29484558 C113.18551308 19.30229294 113.18551308 19.30229294 111.22937012 19.30989075 C107.72099285 19.32300721 104.2126347 19.32945829 100.70423675 19.33390141 C98.5116365 19.33683349 96.31904148 19.34093857 94.12644386 19.34540558 C87.26429684 19.35907884 80.40216175 19.3687462 73.54000205 19.37260747 C65.62243601 19.37708724 57.70504269 19.39463197 49.78752917 19.42360806 C43.66512899 19.44523558 37.54277737 19.45531233 31.42033941 19.45664859 C27.76483063 19.4576959 24.10948425 19.46358782 20.45401573 19.4814682 C16.37463808 19.50103395 12.29562118 19.49665568 8.21620178 19.49015808 C7.00818909 19.49937286 5.80017639 19.50858765 4.55555725 19.51808167 C-2.27071003 19.4839733 -6.63773751 18.82115631 -12.34703064 14.88371277 C-14.33158701 11.95910338 -14.53453064 9.63042286 -14.53453064 6.13371277 C-10.28517878 0.54885032 -6.66929911 0.01142835 0 0 Z " fill="#EEEBEE" transform="translate(194.53453063964844,361.8662872314453)"/>
<path d="M0 0 C4.95 0 9.9 0 15 0 C15.0093457 1.71509766 15.01869141 3.43019531 15.02832031 5.19726562 C15.06396402 10.88915096 15.11783522 16.58067247 15.18390274 22.27228546 C15.22326903 25.72027886 15.2555099 29.16802104 15.27099609 32.61621094 C15.28915662 36.58821815 15.33915575 40.55952946 15.390625 44.53125 C15.39246796 46.37233337 15.39246796 46.37233337 15.39434814 48.25061035 C15.54891721 57.34823924 17.42848267 63.18458006 23.12890625 70.25390625 C23.96905273 71.31834961 23.96905273 71.31834961 24.82617188 72.40429688 C25.98716673 73.84737821 27.14862792 75.29008449 28.31054688 76.73242188 C28.86935547 77.44076172 29.42816406 78.14910156 30.00390625 78.87890625 C30.50736572 79.5035376 31.0108252 80.12816895 31.52954102 80.77172852 C35.23329069 86.38423446 36.4441669 91.18955966 36.34057617 97.86303711 C36.34123329 98.99110779 36.34123329 98.99110779 36.34190369 100.14196777 C36.33982964 102.60403278 36.31656524 105.06539913 36.29296875 107.52734375 C36.28736785 109.24369434 36.28310008 110.96004975 36.28010559 112.67640686 C36.2686957 117.17605011 36.23926206 121.67539911 36.20599365 126.17492676 C36.1752093 130.7734784 36.16158243 135.37207796 36.14648438 139.97070312 C36.1143883 148.98061829 36.06165223 157.99023855 36 167 C31.05 167 26.1 167 21 167 C21.00112793 164.83574463 21.00225586 162.67148926 21.00341797 160.44165039 C21.00278847 153.2649854 20.96921247 146.08874121 20.9197216 138.91225529 C20.89073498 134.56399889 20.87260754 130.21627884 20.87988281 125.86791992 C20.88650392 121.66591519 20.86383504 117.46496767 20.82144547 113.26318169 C20.81036335 111.66578374 20.80956972 110.06827793 20.81957626 108.47087288 C20.87031912 99.17353983 20.49770161 92.23966662 14 85 C13.03050784 83.74776909 12.06719275 82.49070259 11.11328125 81.2265625 C9.71706828 79.42449625 8.31665522 77.63012458 6.88085938 75.859375 C-0.14727261 66.67253207 -0.43324958 56.19733565 -0.29296875 45.01953125 C-0.28872391 43.72552902 -0.28447906 42.43152679 -0.28010559 41.09831238 C-0.2687786 37.69686744 -0.23942033 34.29582118 -0.20599365 30.89453125 C-0.17502681 27.40825795 -0.16154406 23.92191875 -0.14648438 20.43554688 C-0.11453544 13.62351996 -0.06187084 6.8118203 0 0 Z " fill="#FFB640" transform="translate(207,194)"/>
<path d="M0 0 C1.00522202 -0.00860046 2.01044403 -0.01720093 3.04612732 -0.02606201 C4.70669159 -0.03245193 4.70669159 -0.03245193 6.40080261 -0.03897095 C8.1448362 -0.05123718 8.1448362 -0.05123718 9.92410278 -0.06375122 C13.78506448 -0.08863482 17.64598937 -0.10512785 21.50700378 -0.11953735 C23.48075265 -0.12752287 23.48075265 -0.12752287 25.49437523 -0.13566971 C31.0231892 -0.15729802 36.55200026 -0.17603471 42.08084583 -0.1872921 C50.00439671 -0.20353152 57.92745722 -0.23670871 65.85082322 -0.29369295 C71.42202093 -0.33239446 76.9930875 -0.35192498 82.56441611 -0.35721266 C85.89201151 -0.360866 89.21896377 -0.37538014 92.54644203 -0.4053154 C96.25999641 -0.43682075 99.97230675 -0.43702495 103.68595886 -0.42959595 C104.78692902 -0.44600128 105.88789917 -0.46240662 107.02223206 -0.47930908 C114.48812201 -0.41804243 114.48812201 -0.41804243 118.39694214 2.56536865 C121.23747253 6.56030533 121.23747253 6.56030533 121.23747253 9.15390015 C119.70052062 12.30465158 117.93737767 14.9039792 115.23747253 17.15390015 C112.36902464 18.11004944 110.53843306 18.29003849 107.55796814 18.31452942 C106.59633255 18.32457504 105.63469696 18.33462067 104.6439209 18.3449707 C103.06359322 18.35371719 103.06359322 18.35371719 101.45133972 18.36264038 C100.34048508 18.37242416 99.22963043 18.38220795 98.08511353 18.39228821 C94.40153709 18.42225211 90.71799695 18.4436297 87.03434753 18.4624939 C85.77709114 18.46906572 84.51983475 18.47563755 83.22447968 18.48240852 C77.9401152 18.50829569 72.65575609 18.53178423 67.37134933 18.54690456 C59.80812635 18.56880193 52.24561404 18.61075963 44.68267512 18.68034214 C38.71705321 18.73335758 32.75158775 18.75339483 26.78572845 18.76210213 C24.25156895 18.77066815 21.7174225 18.78951413 19.18341827 18.81884575 C15.63544313 18.85770522 12.08932048 18.85880102 8.54118347 18.85092163 C6.97300117 18.88092255 6.97300117 18.88092255 5.37313843 18.91152954 C-0.69502083 18.8510725 -4.09524145 18.00241772 -8.51270676 13.74096775 C-10.53379877 11.17451192 -10.96928848 9.39315605 -10.76252747 6.15390015 C-7.63128559 1.29507655 -5.6244285 0.03575358 0 0 Z " fill="#EFECEF" transform="translate(200.7625274658203,437.8460998535156)"/>
<path d="M0 0 C2.5 2.3125 2.5 2.3125 4 5 C4 5.99 4 6.98 4 8 C25.78 8 47.56 8 70 8 C70.33 6.35 70.66 4.7 71 3 C72.0625 1.1875 72.0625 1.1875 74 0 C80.90410959 -0.76712329 80.90410959 -0.76712329 84.5 1.75 C86 4 86 4 86 8 C86.763125 8.2475 87.52625 8.495 88.3125 8.75 C91.34418085 10.16008412 92.50813188 11.01626376 94 14 C93.86990396 17.18735304 93.57069691 19.21189474 91.6875 21.8125 C85.92168939 25.86992228 77.16727382 24 71 24 C71 43.14 71 62.28 71 82 C70.67 82 70.34 82 70 82 C70 62.86 70 43.72 70 24 C48.22 24 26.44 24 4 24 C4 43.14 4 62.28 4 82 C3.67 82 3.34 82 3 82 C3 62.86 3 43.72 3 24 C-1.95 24 -6.9 24 -12 24 C-17 22 -17 22 -19 20 C-19.68302257 12.9421001 -19.68302257 12.9421001 -17.1875 9.5 C-15 8 -15 8 -12 8 C-11.896875 7.236875 -11.79375 6.47375 -11.6875 5.6875 C-10.12597008 -0.41666243 -5.90827793 -1.29577927 0 0 Z " fill="#FEC459" transform="translate(219,170)"/>
<path d="M0 0 C21.12 0 42.24 0 64 0 C64 12.38886348 61.9244583 19.83172274 53.3359375 28.72265625 C45.7535941 35.76834978 37.83910875 36.70739444 27.84765625 36.34375 C19.08705086 35.56107663 12.92517959 31.35210301 7 25 C0.70673163 17.02959158 0 10.22245016 0 0 Z " fill="#6E60B8" transform="translate(224,476)"/>
<path d="M0 0 C27.99519304 11.38732211 50.24336761 39.12827557 61.82421875 66.18359375 C64.63782555 73.05554764 67.25233675 79.48597952 66 87 C64.4375 89.5625 64.4375 89.5625 62 91 C58.5 91.5625 58.5 91.5625 55 91 C51.47252739 87.41958221 50.17425937 84.02920148 48.8125 79.25 C40.01887649 50.89735427 19.44039698 28.99303978 -6.3125 15.0625 C-6.98925781 14.72347656 -7.66601562 14.38445313 -8.36328125 14.03515625 C-10 13 -10 13 -12 10 C-12.45185216 6.46049143 -12.42109443 4.66673285 -10.5 1.625 C-7.06904674 -0.60511962 -3.94356069 -0.48493902 0 0 Z " fill="#FFE9C6" transform="translate(317,44)"/>
<path d="M0 0 C11.55 0 23.1 0 35 0 C35 12.69037057 32.71012433 19.65513418 24.265625 28.8984375 C22.57840295 30.54833163 21.06167132 31.85410523 19 33 C13.72154807 32.77538502 10.35845605 29.01914111 6.90234375 25.32421875 C0.04969744 16.95188907 0 11.50311732 0 0 Z " fill="#8478C2" transform="translate(253,476)"/>
<path d="M0 0 C2.5 1.5 2.5 1.5 4 4 C4.54686219 6.77988279 4.72991469 9.25208587 4 12 C-0.56156242 17.41390754 -6.90697077 18.95153345 -13.375 21.3125 C-14.59445312 21.77978516 -15.81390625 22.24707031 -17.0703125 22.72851562 C-18.25109375 23.16486328 -19.431875 23.60121094 -20.6484375 24.05078125 C-22.25984619 24.64886597 -22.25984619 24.64886597 -23.90380859 25.2590332 C-27.35653183 26.08532362 -29.58518834 25.89467697 -33 25 C-34.99301736 23.41933106 -35.86543351 22.26913298 -37 20 C-37.35529176 16.73131577 -37.56365501 14.78092985 -35.6015625 12.0625 C-31.79501763 9.04469866 -27.57983222 7.58075503 -23.0625 5.875 C-22.16853516 5.52824219 -21.27457031 5.18148437 -20.35351562 4.82421875 C-18.68422748 4.17732312 -17.01326679 3.53471389 -15.34008789 2.89794922 C-13.66416391 2.25485601 -11.99693555 1.58892007 -10.3359375 0.90820312 C-6.61754389 -0.53749339 -3.98594772 -0.37961407 0 0 Z " fill="#FEC457" transform="translate(473,91)"/>
<path d="M0 0 C2.88419236 1.79018836 3.016524 3.06990924 3.8125 6.4375 C4.05899222 11.12085211 4.05899222 11.12085211 2 14 C-0.765625 15.52734375 -0.765625 15.52734375 -4.25 16.9375 C-4.8675415 17.18838379 -5.48508301 17.43926758 -6.12133789 17.69775391 C-8.07462078 18.48223067 -10.03604342 19.24268901 -12 20 C-12.63212402 20.24991699 -13.26424805 20.49983398 -13.91552734 20.75732422 C-25.94953573 25.49268305 -25.94953573 25.49268305 -33 25 C-35.4375 23.5 -35.4375 23.5 -37 21 C-37.55218306 18.22200688 -37.7295645 15.74659576 -37 13 C-32.43843758 7.58609246 -26.09302923 6.04846655 -19.625 3.6875 C-18.40554687 3.22021484 -17.18609375 2.75292969 -15.9296875 2.27148438 C-14.74890625 1.83513672 -13.568125 1.39878906 -12.3515625 0.94921875 C-11.27729004 0.55049561 -10.20301758 0.15177246 -9.09619141 -0.2590332 C-5.6479854 -1.08424257 -3.41408358 -0.86993771 0 0 Z " fill="#FEC457" transform="translate(72,198)"/>
<path d="M0 0 C3.16253311 1.10365847 6.29811009 2.26466403 9.43212891 3.44677734 C10.51171875 3.83800781 11.59130859 4.22923828 12.70361328 4.63232422 C13.74195313 5.02097656 14.78029297 5.40962891 15.85009766 5.81005859 C16.79006592 6.15979736 17.73003418 6.50953613 18.69848633 6.86987305 C21.5020313 8.26210235 23.2152714 9.76547642 25.24462891 12.13427734 C25.9741934 14.8808731 25.79681196 17.35628422 25.24462891 20.13427734 C23.68212891 22.63427734 23.68212891 22.63427734 21.24462891 24.13427734 C14.26484219 25.0208989 8.46980252 22.28255025 2.05712891 19.75927734 C0.97753906 19.34677734 -0.10205078 18.93427734 -1.21435547 18.50927734 C-13.14646597 13.91715536 -13.14646597 13.91715536 -15.06787109 11.44677734 C-16.07396058 8.06265816 -15.55979508 5.5376096 -14.75537109 2.13427734 C-10.63888268 -3.23505537 -5.78598127 -1.81792394 0 0 Z " fill="#FEC457" transform="translate(451.75537109375,198.86572265625)"/>
<path d="M0 0 C4.38677985 1.33283068 8.58308535 3.04963094 12.8125 4.8125 C13.94365234 5.26431641 15.07480469 5.71613281 16.24023438 6.18164062 C25.7116319 10.0457903 25.7116319 10.0457903 28 13 C28.80442399 16.40333226 29.31858949 18.92838082 28.3125 22.3125 C26.62884529 24.47719891 25.64816011 25.21270916 23 26 C16.20360057 25.55795776 10.14026527 23.07425516 3.8125 20.6875 C2.73291016 20.29626953 1.65332031 19.90503906 0.54101562 19.50195312 C-0.49732422 19.11330078 -1.53566406 18.72464844 -2.60546875 18.32421875 C-3.54543701 17.97447998 -4.48540527 17.62474121 -5.45385742 17.2644043 C-8.25740239 15.87217499 -9.9706425 14.36880092 -12 12 C-12.72991469 9.25208587 -12.54686219 6.77988279 -12 4 C-9.11725137 -0.80458106 -5.12732594 -0.72302015 0 0 Z " fill="#FEC457" transform="translate(47,91)"/>
<path d="M0 0 C0.74234894 -0.00807175 1.48469788 -0.01614349 2.24954224 -0.02445984 C3.82144843 -0.03829592 5.39338462 -0.04902021 6.96533203 -0.05688477 C9.3667908 -0.07410387 11.76687468 -0.11799155 14.16796875 -0.16210938 C15.69530238 -0.17223604 17.22264771 -0.18075223 18.75 -0.1875 C19.46678925 -0.20500809 20.18357849 -0.22251617 20.92208862 -0.24055481 C24.38944752 -0.22550321 26.18260819 -0.01396097 28.95947266 2.13989258 C30.63714386 4.41355767 31.05140454 5.44839039 31.0078125 8.23828125 C31.018125 8.89828125 31.0284375 9.55828125 31.0390625 10.23828125 C30.24249699 13.23711612 28.9502216 14.3338649 26.5078125 16.23828125 C23.80586292 16.63651075 21.51866678 16.80028129 18.8203125 16.76953125 C18.08079346 16.77335815 17.34127441 16.77718506 16.5793457 16.78112793 C15.0193546 16.78384396 13.45931772 16.77650417 11.89941406 16.75976562 C9.51524064 16.73834798 7.13408001 16.75957388 4.75 16.78515625 C3.2317642 16.78251291 1.71353027 16.77738781 0.1953125 16.76953125 C-0.51520264 16.77762817 -1.22571777 16.7857251 -1.95776367 16.79406738 C-5.35085084 16.72997346 -7.18468537 16.4731236 -9.9140625 14.38867188 C-11.97348373 11.58245557 -12.42125853 9.71380093 -12.4921875 6.23828125 C-9.54291087 -0.08159724 -6.4552899 0.06615191 0 0 Z " fill="#FEC458" transform="translate(458.4921875,148.76171875)"/>
<path d="M0 0 C1.10927856 -0.00574036 1.10927856 -0.00574036 2.2409668 -0.01159668 C3.8009579 -0.01431271 5.36099478 -0.00697292 6.92089844 0.00976562 C9.30507186 0.03118327 11.68623249 0.00995737 14.0703125 -0.015625 C15.5885483 -0.01298166 17.10678223 -0.00785656 18.625 0 C19.33551514 -0.00809692 20.04603027 -0.01619385 20.77807617 -0.02453613 C24.17116334 0.03955779 26.00499787 0.29640765 28.734375 2.38085938 C30.79379623 5.18707568 31.24157103 7.05573032 31.3125 10.53125 C29.18206522 15.09646739 29.18206522 15.09646739 26.3125 16.53125 C23.8059729 16.66632003 21.32846679 16.74382842 18.8203125 16.76953125 C18.07796356 16.777603 17.33561462 16.78567474 16.57077026 16.79399109 C14.99886407 16.80782717 13.42692788 16.81855146 11.85498047 16.82641602 C9.4535217 16.84363512 7.05343782 16.8875228 4.65234375 16.93164062 C3.12501012 16.94176729 1.59766479 16.95028348 0.0703125 16.95703125 C-0.64647675 16.97453934 -1.36326599 16.99204742 -2.10177612 17.01008606 C-5.56913502 16.99503446 -7.36229569 16.78349222 -10.13916016 14.62963867 C-11.81683136 12.35597358 -12.23109204 11.32114086 -12.1875 8.53125 C-12.20296875 7.54125 -12.20296875 7.54125 -12.21875 6.53125 C-10.56162946 0.29267855 -5.59441506 -0.06375311 0 0 Z " fill="#FEC458" transform="translate(34.6875,148.46875)"/>
<path d="M0 0 C2 1.1875 2 1.1875 3 3 C3 4.65 3 6.3 3 8 C-1.95 8 -6.9 8 -12 8 C-11 3 -11 3 -9.9375 1.1875 C-6.79178251 -0.74052039 -3.58280381 -0.54488475 0 0 Z " fill="#FFB741" transform="translate(219,170)"/>
<path d="M0 0 C2 1.1875 2 1.1875 3 3 C3 4.65 3 6.3 3 8 C-1.62 8 -6.24 8 -11 8 C-11 3 -11 3 -10 1.1875 C-6.80386985 -0.71020228 -3.616685 -0.55003751 0 0 Z " fill="#FFB641" transform="translate(301,170)"/>
</svg>
