<?xml version="1.0" encoding="UTF-8"?>
<svg version="1.1" xmlns="http://www.w3.org/2000/svg" width="512" height="512">
<path d="M0 0 C1.40979274 -0.00436323 2.81958312 -0.00955163 4.22937012 -0.01548767 C8.01065614 -0.02871766 11.79184126 -0.02947436 15.57314587 -0.02692437 C18.75333568 -0.02584342 21.933506 -0.03076651 25.11369157 -0.03552979 C32.62984612 -0.04657023 40.14595067 -0.04709373 47.66210938 -0.04101562 C55.36186043 -0.03498382 63.06142837 -0.0472793 70.76114821 -0.06858569 C77.42072754 -0.08632194 84.08024922 -0.0921842 90.73985124 -0.08894795 C94.69571569 -0.08715358 98.65144958 -0.0895828 102.60729218 -0.10366249 C143.88288251 -0.23779044 176.57080047 7.06565951 207.19628906 36.2746582 C208.00066406 37.034198 208.00066406 37.034198 208.82128906 37.80908203 C213.26369015 42.10622249 216.98710721 46.68409602 220.57128906 51.7121582 C221.13291748 52.49929199 221.6945459 53.28642578 222.27319336 54.09741211 C235.53022918 72.96457842 244.44637559 93.69415871 249.19628906 116.2746582 C249.36 117.02650391 249.52371094 117.77834961 249.69238281 118.55297852 C252.52162808 132.27247986 252.53357011 146.20012751 252.63378906 160.1496582 C252.64600494 161.07254639 252.65822083 161.99543457 252.67080688 162.94628906 C252.90402465 183.88612849 249.4245856 202.32459415 234.52392578 218.09228516 C221.61214027 231.13752016 205.42434141 238.15596742 187.05997086 238.40329266 C185.08688675 238.41004592 183.11377939 238.41139241 181.14068604 238.40837097 C180.04792539 238.41063653 178.95516475 238.41290208 177.82929015 238.41523629 C174.1785003 238.42155134 170.52774782 238.42074853 166.87695312 238.41992188 C164.25488233 238.42291492 161.63281197 238.42631779 159.01074219 238.43009949 C152.63366517 238.43838779 146.2565974 238.44115351 139.87951544 238.44171187 C134.69292748 238.4421879 129.50634255 238.44424704 124.31975555 238.44741249 C109.59734954 238.45621421 94.87495081 238.46083264 80.15254214 238.46008202 C79.35970324 238.46004206 78.56686433 238.4600021 77.75 238.45996094 C76.95618698 238.45992006 76.16237396 238.45987918 75.344506 238.45983706 C62.48472114 238.45943076 49.62496558 238.46899754 36.7651892 238.4830993 C23.54373082 238.49748265 10.32228671 238.50436841 -2.8991797 238.50350553 C-10.31512074 238.50317423 -17.73103106 238.50589187 -25.14696503 238.51668358 C-32.12372384 238.52677156 -39.1004169 238.52643324 -46.07717896 238.51916695 C-48.63288722 238.518123 -51.18859954 238.5204727 -53.74430084 238.5265274 C-57.24300055 238.5342771 -60.7414782 238.52958271 -64.24017334 238.52189636 C-65.24253643 238.52703993 -66.24489952 238.53218349 -67.27763724 238.53748292 C-86.20868124 238.4460822 -103.2060762 232.70393048 -117.05371094 219.5246582 C-129.8161715 206.13519879 -136.12429773 189.77286467 -136.10449219 171.41137695 C-136.10877731 170.4987056 -136.11306244 169.58603424 -136.11747742 168.64570618 C-136.12318337 166.72214581 -136.12374879 164.79856388 -136.11938477 162.875 C-136.11625998 160.00716835 -136.13960873 157.14040708 -136.16503906 154.27270508 C-136.22266018 137.73348749 -134.74531465 121.23583979 -130.17871094 105.2746582 C-129.92710205 104.37932373 -129.67549316 103.48398926 -129.41625977 102.56152344 C-121.97111724 77.20989277 -108.86077744 55.47713565 -90.80371094 36.2746582 C-90.27777344 35.68426758 -89.75183594 35.09387695 -89.20996094 34.4855957 C-76.19764224 20.47743629 -57.67482331 10.31764851 -39.55371094 4.7746582 C-38.79936768 4.54351318 -38.04502441 4.31236816 -37.26782227 4.07421875 C-25.07576251 0.65254685 -12.59254021 -0.02434546 0 0 Z " fill="#3A96FF" transform="translate(197.8037109375,261.725341796875)"/>
<path d="M0 0 C3.59163777 3.12601394 7.02629819 6.40077759 10.453125 9.70556641 C11.17242187 10.36169922 11.89171875 11.01783203 12.6328125 11.69384766 C29.78612406 27.77938279 41.27865135 52.53603142 44.453125 75.70556641 C44.56269531 76.45064453 44.67226563 77.19572266 44.78515625 77.96337891 C48.58060527 108.63060698 40.556006 139.69829571 22.34375 164.58837891 C20.43231392 167.01101301 18.46428842 169.36545493 16.453125 171.70556641 C15.90269531 172.38876953 15.35226562 173.07197266 14.78515625 173.77587891 C10.00253959 179.56954755 4.39380277 184.1383601 -1.546875 188.70556641 C-2.71863281 189.61822266 -2.71863281 189.61822266 -3.9140625 190.54931641 C-19.03515163 201.75012317 -37.14108456 208.44406946 -55.546875 211.70556641 C-56.28808594 211.83833984 -57.02929688 211.97111328 -57.79296875 212.10791016 C-87.36742388 216.31636089 -119.89203254 208.251205 -143.79296875 190.34619141 C-146.45382081 188.20570015 -149.00633791 185.98660877 -151.546875 183.70556641 C-152.29839844 183.09583984 -153.04992187 182.48611328 -153.82421875 181.85791016 C-175.88563308 163.59617703 -189.42604123 133.84287044 -192.234375 105.77978516 C-194.74559054 76.00903953 -187.09284536 44.56183718 -168.16943359 20.98974609 C-165.11742047 17.40355038 -161.85840834 14.05139077 -158.546875 10.70556641 C-157.81984375 9.91794922 -157.0928125 9.13033203 -156.34375 8.31884766 C-116.88033468 -33.55622083 -43.8442398 -36.68910344 0 0 Z " fill="#5FB3FF" transform="translate(329.546875,37.29443359375)"/>
</svg>
